<?xml version="1.0" encoding="utf-8"?>
<!-- Generator: Adobe Illustrator 25.4.1, SVG Export Plug-In . SVG Version: 6.00 Build 0)  -->
<svg version="1.1" id="Layer_1" xmlns="http://www.w3.org/2000/svg" xmlns:xlink="http://www.w3.org/1999/xlink" x="0px" y="0px"
	 viewBox="0 0 762.6 1589.1" style="enable-background:new 0 0 762.6 1589.1;" xml:space="preserve">
<style type="text/css">
	.st0{fill:none;stroke:#000000;stroke-width:7.200000e-02;stroke-miterlimit:10;}
</style>
<line class="st0" x1="259.5" y1="1248.6" x2="259.5" y2="1282.4"/>
<line class="st0" x1="259.5" y1="1282.4" x2="273.2" y2="1282.4"/>
<line class="st0" x1="273.2" y1="1248.6" x2="259.5" y2="1248.6"/>
<line class="st0" x1="259.5" y1="1181.4" x2="259.5" y2="1215.2"/>
<line class="st0" x1="259.5" y1="1215.2" x2="273.2" y2="1215.2"/>
<line class="st0" x1="273.2" y1="1181.4" x2="259.5" y2="1181.4"/>
<line class="st0" x1="259.5" y1="1114.2" x2="259.5" y2="1148"/>
<line class="st0" x1="259.5" y1="1148" x2="273.2" y2="1148"/>
<line class="st0" x1="273.2" y1="1114.2" x2="259.5" y2="1114.2"/>
<line class="st0" x1="259.5" y1="1047" x2="259.5" y2="1080.8"/>
<line class="st0" x1="259.5" y1="1080.8" x2="273.2" y2="1080.8"/>
<line class="st0" x1="273.2" y1="1047" x2="259.5" y2="1047"/>
<line class="st0" x1="259.5" y1="979.8" x2="259.5" y2="1013.6"/>
<line class="st0" x1="259.5" y1="1013.6" x2="273.2" y2="1013.6"/>
<line class="st0" x1="273.2" y1="979.8" x2="259.5" y2="979.8"/>
<line class="st0" x1="259.5" y1="912.6" x2="259.5" y2="946.4"/>
<line class="st0" x1="259.5" y1="946.4" x2="273.2" y2="946.4"/>
<line class="st0" x1="273.2" y1="912.6" x2="259.5" y2="912.6"/>
<line class="st0" x1="259.5" y1="845.4" x2="259.5" y2="879.2"/>
<line class="st0" x1="259.5" y1="879.2" x2="273.2" y2="879.2"/>
<line class="st0" x1="273.2" y1="845.4" x2="259.5" y2="845.4"/>
<line class="st0" x1="273.2" y1="1282.4" x2="273.2" y2="1316"/>
<line class="st0" x1="273.2" y1="1316" x2="304" y2="1316"/>
<line class="st0" x1="273.2" y1="1215.2" x2="273.2" y2="1248.6"/>
<line class="st0" x1="273.2" y1="1148" x2="273.2" y2="1181.4"/>
<line class="st0" x1="273.2" y1="1080.8" x2="273.2" y2="1114.2"/>
<line class="st0" x1="273.2" y1="1013.6" x2="273.2" y2="1047"/>
<line class="st0" x1="273.2" y1="946.4" x2="273.2" y2="979.8"/>
<line class="st0" x1="273.2" y1="879.2" x2="273.2" y2="912.6"/>
<line class="st0" x1="273.2" y1="811.8" x2="273.2" y2="845.4"/>
<line class="st0" x1="458.5" y1="1316" x2="489.3" y2="1316"/>
<line class="st0" x1="489.3" y1="1316" x2="489.3" y2="1282.4"/>
<line class="st0" x1="489.3" y1="1282.4" x2="503" y2="1282.4"/>
<line class="st0" x1="489.3" y1="1248.6" x2="489.3" y2="1215.2"/>
<line class="st0" x1="503" y1="1248.6" x2="489.3" y2="1248.6"/>
<line class="st0" x1="489.3" y1="1215.2" x2="503" y2="1215.2"/>
<line class="st0" x1="489.3" y1="1181.4" x2="489.3" y2="1148"/>
<line class="st0" x1="503" y1="1181.4" x2="489.3" y2="1181.4"/>
<line class="st0" x1="489.3" y1="1148" x2="503" y2="1148"/>
<line class="st0" x1="489.3" y1="1114.2" x2="489.3" y2="1080.8"/>
<line class="st0" x1="503" y1="1114.2" x2="489.3" y2="1114.2"/>
<line class="st0" x1="489.3" y1="1080.8" x2="503" y2="1080.8"/>
<line class="st0" x1="489.3" y1="1047" x2="489.3" y2="1013.6"/>
<line class="st0" x1="503" y1="1047" x2="489.3" y2="1047"/>
<line class="st0" x1="489.3" y1="1013.6" x2="503" y2="1013.6"/>
<line class="st0" x1="489.3" y1="979.8" x2="489.3" y2="946.4"/>
<line class="st0" x1="503" y1="979.8" x2="489.3" y2="979.8"/>
<line class="st0" x1="489.3" y1="946.4" x2="503" y2="946.4"/>
<line class="st0" x1="489.3" y1="912.6" x2="489.3" y2="879.2"/>
<line class="st0" x1="503" y1="912.6" x2="489.3" y2="912.6"/>
<line class="st0" x1="489.3" y1="879.2" x2="503" y2="879.2"/>
<line class="st0" x1="489.3" y1="845.4" x2="489.3" y2="811.8"/>
<line class="st0" x1="503" y1="845.4" x2="489.3" y2="845.4"/>
<line class="st0" x1="503" y1="1282.4" x2="503" y2="1248.6"/>
<line class="st0" x1="503" y1="1215.2" x2="503" y2="1181.4"/>
<line class="st0" x1="503" y1="1148" x2="503" y2="1114.2"/>
<line class="st0" x1="503" y1="1080.8" x2="503" y2="1047"/>
<line class="st0" x1="503" y1="1013.6" x2="503" y2="979.8"/>
<line class="st0" x1="503" y1="946.4" x2="503" y2="912.6"/>
<line class="st0" x1="503" y1="879.2" x2="503" y2="845.4"/>
<line class="st0" x1="8.9" y1="1282.2" x2="8.9" y2="1316"/>
<line class="st0" x1="8.9" y1="1316" x2="22.6" y2="1316"/>
<line class="st0" x1="22.6" y1="1282.2" x2="8.9" y2="1282.2"/>
<line class="st0" x1="8.9" y1="1215" x2="8.9" y2="1248.8"/>
<line class="st0" x1="8.9" y1="1248.8" x2="22.6" y2="1248.8"/>
<line class="st0" x1="22.6" y1="1215" x2="8.9" y2="1215"/>
<line class="st0" x1="8.9" y1="1147.8" x2="8.9" y2="1181.6"/>
<line class="st0" x1="8.9" y1="1181.6" x2="22.6" y2="1181.6"/>
<line class="st0" x1="22.6" y1="1147.8" x2="8.9" y2="1147.8"/>
<line class="st0" x1="8.9" y1="1080.6" x2="8.9" y2="1114.4"/>
<line class="st0" x1="8.9" y1="1114.4" x2="22.6" y2="1114.4"/>
<line class="st0" x1="22.6" y1="1080.6" x2="8.9" y2="1080.6"/>
<line class="st0" x1="8.9" y1="1013.4" x2="8.9" y2="1047.2"/>
<line class="st0" x1="8.9" y1="1047.2" x2="22.6" y2="1047.2"/>
<line class="st0" x1="22.6" y1="1013.4" x2="8.9" y2="1013.4"/>
<line class="st0" x1="8.9" y1="946.2" x2="8.9" y2="980"/>
<line class="st0" x1="8.9" y1="980" x2="22.6" y2="980"/>
<line class="st0" x1="22.6" y1="946.2" x2="8.9" y2="946.2"/>
<line class="st0" x1="8.9" y1="879" x2="8.9" y2="912.8"/>
<line class="st0" x1="8.9" y1="912.8" x2="22.6" y2="912.8"/>
<line class="st0" x1="22.6" y1="879" x2="8.9" y2="879"/>
<line class="st0" x1="8.9" y1="811.8" x2="8.9" y2="845.6"/>
<line class="st0" x1="8.9" y1="845.6" x2="22.6" y2="845.6"/>
<line class="st0" x1="22.6" y1="811.8" x2="8.9" y2="811.8"/>
<line class="st0" x1="22.6" y1="1248.8" x2="22.6" y2="1282.2"/>
<line class="st0" x1="22.6" y1="1181.6" x2="22.6" y2="1215"/>
<line class="st0" x1="22.6" y1="1114.4" x2="22.6" y2="1147.8"/>
<line class="st0" x1="22.6" y1="1047.2" x2="22.6" y2="1080.6"/>
<line class="st0" x1="22.6" y1="980" x2="22.6" y2="1013.4"/>
<line class="st0" x1="22.6" y1="912.8" x2="22.6" y2="946.2"/>
<line class="st0" x1="22.6" y1="845.6" x2="22.6" y2="879"/>
<line class="st0" x1="238.8" y1="1316" x2="252.4" y2="1316"/>
<line class="st0" x1="238.8" y1="1282.2" x2="238.8" y2="1248.8"/>
<line class="st0" x1="252.4" y1="1282.2" x2="238.8" y2="1282.2"/>
<line class="st0" x1="238.8" y1="1248.8" x2="252.4" y2="1248.8"/>
<line class="st0" x1="238.8" y1="1215" x2="238.8" y2="1181.6"/>
<line class="st0" x1="252.4" y1="1215" x2="238.8" y2="1215"/>
<line class="st0" x1="238.8" y1="1181.6" x2="252.4" y2="1181.6"/>
<line class="st0" x1="238.8" y1="1147.8" x2="238.8" y2="1114.4"/>
<line class="st0" x1="252.4" y1="1147.8" x2="238.8" y2="1147.8"/>
<line class="st0" x1="238.8" y1="1114.4" x2="252.4" y2="1114.4"/>
<line class="st0" x1="238.8" y1="1080.6" x2="238.8" y2="1047.2"/>
<line class="st0" x1="252.4" y1="1080.6" x2="238.8" y2="1080.6"/>
<line class="st0" x1="238.8" y1="1047.2" x2="252.4" y2="1047.2"/>
<line class="st0" x1="238.8" y1="1013.4" x2="238.8" y2="980"/>
<line class="st0" x1="252.4" y1="1013.4" x2="238.8" y2="1013.4"/>
<line class="st0" x1="238.8" y1="980" x2="252.4" y2="980"/>
<line class="st0" x1="238.8" y1="946.2" x2="238.8" y2="912.8"/>
<line class="st0" x1="252.4" y1="946.2" x2="238.8" y2="946.2"/>
<line class="st0" x1="238.8" y1="912.8" x2="252.4" y2="912.8"/>
<line class="st0" x1="238.8" y1="879" x2="238.8" y2="845.6"/>
<line class="st0" x1="252.4" y1="879" x2="238.8" y2="879"/>
<line class="st0" x1="238.8" y1="845.6" x2="252.4" y2="845.6"/>
<line class="st0" x1="252.4" y1="811.8" x2="238.8" y2="811.8"/>
<line class="st0" x1="252.4" y1="1248.8" x2="252.4" y2="1215"/>
<line class="st0" x1="252.4" y1="1181.6" x2="252.4" y2="1147.8"/>
<line class="st0" x1="252.4" y1="1114.4" x2="252.4" y2="1080.6"/>
<line class="st0" x1="252.4" y1="1047.2" x2="252.4" y2="1013.4"/>
<line class="st0" x1="252.4" y1="980" x2="252.4" y2="946.2"/>
<line class="st0" x1="252.4" y1="912.8" x2="252.4" y2="879"/>
<line class="st0" x1="252.4" y1="845.6" x2="252.4" y2="811.8"/>
<line class="st0" x1="510" y1="1282.2" x2="510" y2="1316"/>
<line class="st0" x1="510" y1="1316" x2="523.7" y2="1316"/>
<line class="st0" x1="523.7" y1="1282.2" x2="510" y2="1282.2"/>
<line class="st0" x1="510" y1="1215" x2="510" y2="1248.8"/>
<line class="st0" x1="510" y1="1248.8" x2="523.7" y2="1248.8"/>
<line class="st0" x1="523.7" y1="1215" x2="510" y2="1215"/>
<line class="st0" x1="510" y1="1147.8" x2="510" y2="1181.6"/>
<line class="st0" x1="510" y1="1181.6" x2="523.7" y2="1181.6"/>
<line class="st0" x1="523.7" y1="1147.8" x2="510" y2="1147.8"/>
<line class="st0" x1="510" y1="1080.6" x2="510" y2="1114.4"/>
<line class="st0" x1="510" y1="1114.4" x2="523.7" y2="1114.4"/>
<line class="st0" x1="523.7" y1="1080.6" x2="510" y2="1080.6"/>
<line class="st0" x1="510" y1="1013.4" x2="510" y2="1047.2"/>
<line class="st0" x1="510" y1="1047.2" x2="523.7" y2="1047.2"/>
<line class="st0" x1="523.7" y1="1013.4" x2="510" y2="1013.4"/>
<line class="st0" x1="510" y1="946.2" x2="510" y2="980"/>
<line class="st0" x1="510" y1="980" x2="523.7" y2="980"/>
<line class="st0" x1="523.7" y1="946.2" x2="510" y2="946.2"/>
<line class="st0" x1="510" y1="879" x2="510" y2="912.8"/>
<line class="st0" x1="510" y1="912.8" x2="523.7" y2="912.8"/>
<line class="st0" x1="523.7" y1="879" x2="510" y2="879"/>
<line class="st0" x1="510" y1="811.8" x2="510" y2="845.6"/>
<line class="st0" x1="510" y1="845.6" x2="523.7" y2="845.6"/>
<line class="st0" x1="523.7" y1="1248.8" x2="523.7" y2="1282.2"/>
<line class="st0" x1="523.7" y1="1181.6" x2="523.7" y2="1215"/>
<line class="st0" x1="523.7" y1="1114.4" x2="523.7" y2="1147.8"/>
<line class="st0" x1="523.7" y1="1047.2" x2="523.7" y2="1080.6"/>
<line class="st0" x1="523.7" y1="980" x2="523.7" y2="1013.4"/>
<line class="st0" x1="523.7" y1="912.8" x2="523.7" y2="946.2"/>
<line class="st0" x1="523.7" y1="845.6" x2="523.7" y2="879"/>
<line class="st0" x1="739.9" y1="1316" x2="753.6" y2="1316"/>
<line class="st0" x1="739.9" y1="1282.2" x2="739.9" y2="1248.8"/>
<line class="st0" x1="753.6" y1="1282.2" x2="739.9" y2="1282.2"/>
<line class="st0" x1="739.9" y1="1248.8" x2="753.6" y2="1248.8"/>
<line class="st0" x1="739.9" y1="1215" x2="739.9" y2="1181.6"/>
<line class="st0" x1="753.6" y1="1215" x2="739.9" y2="1215"/>
<line class="st0" x1="739.9" y1="1181.6" x2="753.6" y2="1181.6"/>
<line class="st0" x1="739.9" y1="1147.8" x2="739.9" y2="1114.4"/>
<line class="st0" x1="753.6" y1="1147.8" x2="739.9" y2="1147.8"/>
<line class="st0" x1="739.9" y1="1114.4" x2="753.6" y2="1114.4"/>
<line class="st0" x1="739.9" y1="1080.6" x2="739.9" y2="1047.2"/>
<line class="st0" x1="753.6" y1="1080.6" x2="739.9" y2="1080.6"/>
<line class="st0" x1="739.9" y1="1047.2" x2="753.6" y2="1047.2"/>
<line class="st0" x1="739.9" y1="1013.4" x2="739.9" y2="980"/>
<line class="st0" x1="753.6" y1="1013.4" x2="739.9" y2="1013.4"/>
<line class="st0" x1="739.9" y1="980" x2="753.6" y2="980"/>
<line class="st0" x1="739.9" y1="946.2" x2="739.9" y2="912.8"/>
<line class="st0" x1="753.6" y1="946.2" x2="739.9" y2="946.2"/>
<line class="st0" x1="739.9" y1="912.8" x2="753.6" y2="912.8"/>
<line class="st0" x1="739.9" y1="879" x2="739.9" y2="845.6"/>
<line class="st0" x1="753.6" y1="879" x2="739.9" y2="879"/>
<line class="st0" x1="739.9" y1="845.6" x2="753.6" y2="845.6"/>
<line class="st0" x1="753.6" y1="811.8" x2="739.9" y2="811.8"/>
<line class="st0" x1="753.6" y1="1316" x2="753.6" y2="1282.2"/>
<line class="st0" x1="753.6" y1="1248.8" x2="753.6" y2="1215"/>
<line class="st0" x1="753.6" y1="1181.6" x2="753.6" y2="1147.8"/>
<line class="st0" x1="753.6" y1="1114.4" x2="753.6" y2="1080.6"/>
<line class="st0" x1="753.6" y1="1047.2" x2="753.6" y2="1013.4"/>
<line class="st0" x1="753.6" y1="980" x2="753.6" y2="946.2"/>
<line class="st0" x1="753.6" y1="912.8" x2="753.6" y2="879"/>
<line class="st0" x1="753.6" y1="845.6" x2="753.6" y2="811.8"/>
<polygon class="st0" points="207.9,302 238.8,302 238.8,335.6 252.4,335.6 252.4,369.3 238.8,369.3 238.8,402.8 252.4,402.8 
	252.4,436.5 238.8,436.5 238.8,470 252.4,470 252.4,503.7 238.8,503.7 238.8,537.2 252.4,537.2 252.4,570.9 238.8,570.9 
	238.8,604.4 252.4,604.4 252.4,638.1 238.8,638.1 238.8,671.6 252.4,671.6 252.4,705.3 238.8,705.3 238.8,738.8 252.4,738.8 
	252.4,772.5 238.8,772.5 238.8,806.1 207.9,806.1 53.5,806.1 22.6,806.1 22.6,772.5 8.9,772.5 8.9,738.8 22.6,738.8 22.6,705.3 
	8.9,705.3 8.9,671.6 22.6,671.6 22.6,638.1 8.9,638.1 8.9,604.4 22.6,604.4 22.6,570.9 8.9,570.9 8.9,537.2 22.6,537.2 22.6,503.7 
	8.9,503.7 8.9,470 22.6,470 22.6,436.5 8.9,436.5 8.9,402.8 22.6,402.8 22.6,369.3 8.9,369.3 8.9,335.6 22.6,335.6 22.6,302 
	53.5,302 "/>
<line class="st0" x1="252.4" y1="1282.2" x2="252.4" y2="1319.2"/>
<line class="st0" x1="22.6" y1="1316" x2="238.8" y2="1316"/>
<line class="st0" x1="22.6" y1="811.8" x2="238.8" y2="811.8"/>
<line class="st0" x1="304" y1="1316" x2="458.5" y2="1316"/>
<line class="st0" x1="273.2" y1="811.8" x2="489.3" y2="811.8"/>
<line class="st0" x1="523.7" y1="1316" x2="739.9" y2="1316"/>
<line class="st0" x1="578.3" y1="1210.1" x2="579.3" y2="1210.1"/>
<line class="st0" x1="510" y1="811.8" x2="511" y2="811.8"/>
<line class="st0" x1="510" y1="811.8" x2="739.9" y2="811.8"/>
</svg>
