<?xml version="1.0" encoding="utf-8"?>
<!-- Generator: Adobe Illustrator 25.4.1, SVG Export Plug-In . SVG Version: 6.00 Build 0)  -->
<svg version="1.1" id="Layer_1" xmlns="http://www.w3.org/2000/svg" xmlns:xlink="http://www.w3.org/1999/xlink" x="0px" y="0px"
	 viewBox="0 0 595.3 841.9" style="enable-background:new 0 0 595.3 841.9;" xml:space="preserve">
<style type="text/css">
	.st0{fill:#FFFFFF;stroke:#000000;stroke-width:2;stroke-miterlimit:10;}
	.st1{fill:none;stroke:#000000;stroke-width:2;stroke-miterlimit:10;}
	.st2{fill:none;}
	.st3{stroke:#3F54A4;stroke-miterlimit:10;}
	.st4{font-family:'AlexBrush-Regular';}
	.st5{font-size:72px;}
</style>
<ellipse class="st0" cx="285.9" cy="436.2" rx="172.5" ry="158"/>
<g>
	<line class="st1" x1="331.9" y1="308.6" x2="414.9" y2="256.6"/>
	<line class="st1" x1="412.5" y1="254.8" x2="407.5" y2="351.8"/>
</g>
<g>
	<line class="st1" x1="218.9" y1="317.9" x2="135.9" y2="265.9"/>
	<line class="st1" x1="138.3" y1="264.1" x2="143.3" y2="361.1"/>
</g>
<path class="st1" d="M282,430"/>
<path class="st1" d="M276,278c0,10.1,0,20.1,0,30.2"/>
<path class="st1" d="M246,282.4c0,12.6,0,25.1,0,37.7"/>
<path class="st1" d="M310,320c0-14,0-27,0-40.5"/>
<g>
	<path class="st1" d="M392,420.9c17-16.9,33.6-34.1,50.6-51"/>
	<path class="st1" d="M411,450c14.8-14.8,29.6-29.6,44.4-44.4"/>
	<path class="st1" d="M419,486c12.9-12.9,25.9-25.9,38.8-38.8"/>
</g>
<path class="st1" d="M119.9,396.7"/>
<path class="st1" d="M194,420.8"/>
<path class="st1" d="M189.6,459.4"/>
<path class="st1" d="M113.4,433.5"/>
<g>
	<path class="st1" d="M165.1,423.9c-13.9-13.8-27.5-27.9-41.3-41.7"/>
	<path class="st1" d="M146.1,453c-10.7-10.7-21.4-21.4-32-32"/>
	<path class="st1" d="M138.1,489c-7-7-14.1-14.1-21.1-21.1"/>
</g>
<text transform="matrix(1 0 0 1 615.0498 268.9258)" style="font-family:'MyriadPro-Regular'; font-size:12px;">Lorem ipsum</text>
<rect x="199.6" y="545.9" class="st2" width="319.1" height="95"/>
<text transform="matrix(1 0 0 1 199.5848 638.1592)" class="st3 st4 st5">Cats</text>
</svg>
