<?xml version='1.0' encoding='us-ascii'?>
<svg height="220.40mm" viewBox="0.0 0.0 369.49 220.40" width="369.49mm" xmlns="http://www.w3.org/2000/svg" xmlns:cc="http://creativecommons.org/ns#" xmlns:dc="http://purl.org/dc/elements/1.1/" xmlns:inkscape="http://www.inkscape.org/namespaces/inkscape" xmlns:rdf="http://www.w3.org/1999/02/22-rdf-syntax-ns#" xmlns:svg="http://www.w3.org/2000/svg" xmlns:xlink="http://www.w3.org/1999/xlink">
<!--
FlexBox - Box with living hinge and round corners

Created with Boxes.py (https://festi.info/boxes.py)
Creation date: 2021-10-06 18:50:01
Command line (remove spaces between dashes): boxes FlexBox - -FingerJoint_angle=90.0 - -FingerJoint_style=rectangular - -FingerJoint_surroundingspaces=2.0 - -FingerJoint_edge_width=1.0 - -FingerJoint_finger=2.0 - -FingerJoint_play=0.0 - -FingerJoint_space=2.0 - -FingerJoint_width=1.0 - -Flex_stretch=1.05 - -Flex_connection=1.0 - -Flex_distance=0.5 - -Flex_width=5.0 - -x=100.0 - -y=100.0 - -h=100.0 - -outside=0 - -outside=1 - -radius=15 - -latchsize=8 - -thickness=3.12 - -format=svg - -tabs=0.0 - -debug=0 - -labels=0 - -labels=1 - -reference=0 - -burn=0.1
Url: http://www.festi.info/FlexBox?FingerJoint_angle=90.0&FingerJoint_style=rectangular&FingerJoint_surroundingspaces=2.0&FingerJoint_edge_width=1.0&FingerJoint_finger=2.0&FingerJoint_play=0.0&FingerJoint_space=2.0&FingerJoint_width=1.0&Flex_stretch=1.05&Flex_connection=1.0&Flex_distance=0.5&Flex_width=5.0&x=100.0&y=100.0&h=100.0&outside=0&outside=1&radius=15&latchsize=8&thickness=3.12&format=svg&tabs=0.0&debug=0&labels=0&labels=1&reference=0&burn=0.1&render=1
SettingsUrl: http://www.festi.info/FlexBox?FingerJoint_angle=90.0&FingerJoint_style=rectangular&FingerJoint_surroundingspaces=2.0&FingerJoint_edge_width=1.0&FingerJoint_finger=2.0&FingerJoint_play=0.0&FingerJoint_space=2.0&FingerJoint_width=1.0&Flex_stretch=1.05&Flex_connection=1.0&Flex_distance=0.5&Flex_width=5.0&x=100.0&y=100.0&h=100.0&outside=0&outside=1&radius=15&latchsize=8&thickness=3.12&format=svg&tabs=0.0&debug=0&labels=0&labels=1&reference=0&burn=0.1
-->
<title>FlexBox</title>
<metadata>
<rdf:RDF><cc:Work>
<dc:title>FlexBox - FlexBox</dc:title>
<dc:date>2021-10-06 18:50:01</dc:date>
<dc:source>http://www.festi.info/FlexBox?FingerJoint_angle=90.0&amp;FingerJoint_style=rectangular&amp;FingerJoint_surroundingspaces=2.0&amp;FingerJoint_edge_width=1.0&amp;FingerJoint_finger=2.0&amp;FingerJoint_play=0.0&amp;FingerJoint_space=2.0&amp;FingerJoint_width=1.0&amp;Flex_stretch=1.05&amp;Flex_connection=1.0&amp;Flex_distance=0.5&amp;Flex_width=5.0&amp;x=100.0&amp;y=100.0&amp;h=100.0&amp;outside=0&amp;outside=1&amp;radius=15&amp;latchsize=8&amp;thickness=3.12&amp;format=svg&amp;tabs=0.0&amp;debug=0&amp;labels=0&amp;labels=1&amp;reference=0&amp;burn=0.1&amp;render=1</dc:source>
<dc:description>Box with living hinge and round corners

Created with Boxes.py (https://festi.info/boxes.py)
Command line: boxes FlexBox --FingerJoint_angle=90.0 --FingerJoint_style=rectangular --FingerJoint_surroundingspaces=2.0 --FingerJoint_edge_width=1.0 --FingerJoint_finger=2.0 --FingerJoint_play=0.0 --FingerJoint_space=2.0 --FingerJoint_width=1.0 --Flex_stretch=1.05 --Flex_connection=1.0 --Flex_distance=0.5 --Flex_width=5.0 --x=100.0 --y=100.0 --h=100.0 --outside=0 --outside=1 --radius=15 --latchsize=8 --thickness=3.12 --format=svg --tabs=0.0 --debug=0 --labels=0 --labels=1 --reference=0 --burn=0.1
Url: http://www.festi.info/FlexBox?FingerJoint_angle=90.0&amp;FingerJoint_style=rectangular&amp;FingerJoint_surroundingspaces=2.0&amp;FingerJoint_edge_width=1.0&amp;FingerJoint_finger=2.0&amp;FingerJoint_play=0.0&amp;FingerJoint_space=2.0&amp;FingerJoint_width=1.0&amp;Flex_stretch=1.05&amp;Flex_connection=1.0&amp;Flex_distance=0.5&amp;Flex_width=5.0&amp;x=100.0&amp;y=100.0&amp;h=100.0&amp;outside=0&amp;outside=1&amp;radius=15&amp;latchsize=8&amp;thickness=3.12&amp;format=svg&amp;tabs=0.0&amp;debug=0&amp;labels=0&amp;labels=1&amp;reference=0&amp;burn=0.1&amp;render=1
SettingsUrl: http://www.festi.info/FlexBox?FingerJoint_angle=90.0&amp;FingerJoint_style=rectangular&amp;FingerJoint_surroundingspaces=2.0&amp;FingerJoint_edge_width=1.0&amp;FingerJoint_finger=2.0&amp;FingerJoint_play=0.0&amp;FingerJoint_space=2.0&amp;FingerJoint_width=1.0&amp;Flex_stretch=1.05&amp;Flex_connection=1.0&amp;Flex_distance=0.5&amp;Flex_width=5.0&amp;x=100.0&amp;y=100.0&amp;h=100.0&amp;outside=0&amp;outside=1&amp;radius=15&amp;latchsize=8&amp;thickness=3.12&amp;format=svg&amp;tabs=0.0&amp;debug=0&amp;labels=0&amp;labels=1&amp;reference=0&amp;burn=0.1
</dc:description>
</cc:Work></rdf:RDF></metadata>
<g id="p-0" style="fill:none;stroke-linecap:round;stroke-linejoin:round;">
  <text alignment-baseline="hanging" font-size="4px" style="font-family: sans-serif ; font-weight: normal; font-style: normal; fill: rgb(255,0,0)" text-anchor="middle" transform="matrix( 1.000 0.000 0.000 1.000 184.744 157.620 )" /><path d="M 10.100 209.620 H 20.140 C 20.195 209.620 20.240 209.575 20.240 209.520 V 206.500 C 20.240 206.400 20.140 206.500 20.240 206.500 H 26.280 C 26.380 206.500 26.280 206.400 26.280 206.500 V 209.520 C 26.280 209.575 26.325 209.620 26.380 209.620 H 32.620 C 32.675 209.620 32.720 209.575 32.720 209.520 V 206.500 C 32.720 206.400 32.620 206.500 32.720 206.500 H 38.760 C 38.860 206.500 38.760 206.400 38.760 206.500 V 209.520 C 38.760 209.575 38.805 209.620 38.860 209.620 H 48.900 H 72.462 H 82.502 C 82.557 209.620 82.602 209.575 82.602 209.520 V 206.500 C 82.602 206.400 82.502 206.500 82.602 206.500 H 88.642 C 88.742 206.500 88.642 206.400 88.642 206.500 V 209.520 C 88.642 209.575 88.687 209.620 88.742 209.620 H 94.982 C 95.037 209.620 95.082 209.575 95.082 209.520 V 206.500 C 95.082 206.400 94.982 206.500 95.082 206.500 H 101.122 C 101.222 206.500 101.122 206.400 101.122 206.500 V 209.520 C 101.122 209.575 101.167 209.620 101.222 209.620 H 107.462 C 107.517 209.620 107.562 209.575 107.562 209.520 V 206.500 C 107.562 206.400 107.462 206.500 107.562 206.500 H 113.602 C 113.702 206.500 113.602 206.400 113.602 206.500 V 209.520 C 113.602 209.575 113.647 209.620 113.702 209.620 H 119.942 C 119.997 209.620 120.042 209.575 120.042 209.520 V 206.500 C 120.042 206.400 119.942 206.500 120.042 206.500 H 126.082 C 126.182 206.500 126.082 206.400 126.082 206.500 V 209.520 C 126.082 209.575 126.127 209.620 126.182 209.620 H 136.222 H 159.784 H 169.824 C 169.879 209.620 169.924 209.575 169.924 209.520 V 206.500 C 169.924 206.400 169.824 206.500 169.924 206.500 H 175.964 C 176.064 206.500 175.964 206.400 175.964 206.500 V 209.520 C 175.964 209.575 176.009 209.620 176.064 209.620 H 182.304 C 182.359 209.620 182.404 209.575 182.404 209.520 V 206.500 C 182.404 206.400 182.304 206.500 182.404 206.500 H 188.444 C 188.544 206.500 188.444 206.400 188.444 206.500 V 209.520 C 188.444 209.575 188.489 209.620 188.544 209.620 H 194.784 C 194.839 209.620 194.884 209.575 194.884 209.520 V 206.500 C 194.884 206.400 194.784 206.500 194.884 206.500 H 200.924 C 201.024 206.500 200.924 206.400 200.924 206.500 V 209.520 C 200.924 209.575 200.969 209.620 201.024 209.620 H 207.264 C 207.319 209.620 207.364 209.575 207.364 209.520 V 206.500 C 207.364 206.400 207.264 206.500 207.364 206.500 H 213.404 C 213.504 206.500 213.404 206.400 213.404 206.500 V 209.520 C 213.404 209.575 213.449 209.620 213.504 209.620 H 223.544 H 247.106 H 310.866 H 334.428 C 334.483 209.620 334.528 209.575 334.528 209.520 V 206.188 C 334.528 206.088 334.428 206.188 334.528 206.188 H 347.432 C 347.532 206.188 347.432 206.088 347.432 206.188 V 209.520 C 347.432 209.674 347.472 209.826 347.550 209.960 C 347.627 210.094 347.738 210.205 347.872 210.282 C 348.006 210.359 348.157 210.400 348.312 210.400 C 348.442 210.400 348.571 210.366 348.684 210.300 C 348.797 210.235 348.890 210.141 348.956 210.028 C 349.021 209.915 349.055 209.787 349.055 209.657 C 349.055 209.561 349.080 209.467 349.128 209.385 C 349.176 209.302 349.244 209.234 349.327 209.186 C 349.410 209.138 349.503 209.113 349.599 209.113 C 349.694 209.113 349.788 209.138 349.871 209.186 C 349.953 209.234 350.022 209.302 350.069 209.385 C 350.117 209.467 350.142 209.561 350.142 209.657 C 350.142 209.787 350.177 209.915 350.242 210.028 C 350.307 210.141 350.401 210.235 350.514 210.300 C 350.627 210.366 350.755 210.400 350.886 210.400 C 351.016 210.400 351.145 210.366 351.258 210.300 C 351.371 210.235 351.464 210.141 351.530 210.028 C 351.595 209.915 351.629 209.787 351.629 209.657 C 351.629 209.561 351.654 209.467 351.702 209.385 C 351.750 209.302 351.818 209.234 351.901 209.186 C 351.984 209.138 352.077 209.113 352.173 209.113 C 352.268 209.113 352.362 209.138 352.445 209.186 C 352.527 209.234 352.596 209.302 352.643 209.385 C 352.691 209.467 352.716 209.561 352.716 209.657 C 352.716 209.787 352.751 209.915 352.816 210.028 C 352.881 210.141 352.975 210.235 353.088 210.300 C 353.201 210.366 353.329 210.400 353.460 210.400 C 353.590 210.400 353.719 210.366 353.832 210.300 C 353.945 210.235 354.038 210.141 354.104 210.028 C 354.169 209.915 354.203 209.787 354.203 209.657 C 354.203 209.561 354.228 209.467 354.276 209.385 C 354.324 209.302 354.392 209.234 354.475 209.186 C 354.558 209.138 354.651 209.113 354.747 209.113 C 354.842 209.113 354.936 209.138 355.019 209.186 C 355.101 209.234 355.170 209.302 355.217 209.385 C 355.265 209.467 355.290 209.561 355.290 209.657 C 355.290 209.787 355.325 209.915 355.390 210.028 C 355.455 210.141 355.549 210.235 355.662 210.300 C 355.775 210.366 355.903 210.400 356.034 210.400 C 356.164 210.400 356.293 210.366 356.406 210.300 C 356.519 210.235 356.612 210.141 356.678 210.028 C 356.743 209.915 356.777 209.787 356.777 209.657 C 356.777 209.561 356.802 209.467 356.850 209.385 C 356.898 209.302 356.966 209.234 357.049 209.186 C 357.132 209.138 357.225 209.113 357.321 209.113 C 357.416 209.113 357.510 209.138 357.593 209.186 C 357.675 209.234 357.744 209.302 357.791 209.385 C 357.839 209.467 357.864 209.561 357.864 209.657 C 357.864 209.787 357.899 209.915 357.964 210.028 C 358.029 210.141 358.123 210.235 358.236 210.300 C 358.349 210.366 358.477 210.400 358.608 210.400 C 358.762 210.400 358.914 210.359 359.048 210.282 C 359.182 210.205 359.293 210.094 359.370 209.960 C 359.447 209.826 359.488 209.674 359.488 209.520 V 109.520 C 359.488 109.366 359.447 109.214 359.370 109.080 C 359.293 108.946 359.182 108.835 359.048 108.758 C 358.914 108.681 358.762 108.640 358.608 108.640 C 358.477 108.640 358.349 108.674 358.236 108.740 C 358.123 108.805 358.029 108.899 357.964 109.012 C 357.899 109.125 357.864 109.253 357.864 109.384 C 357.864 109.479 357.839 109.573 357.791 109.655 C 357.744 109.738 357.675 109.806 357.593 109.854 C 357.510 109.902 357.416 109.927 357.321 109.927 C 357.225 109.927 357.132 109.902 357.049 109.854 C 356.966 109.806 356.898 109.738 356.850 109.655 C 356.802 109.573 356.777 109.479 356.777 109.384 C 356.777 109.253 356.743 109.125 356.678 109.012 C 356.612 108.899 356.519 108.805 356.406 108.740 C 356.293 108.674 356.164 108.640 356.034 108.640 C 355.903 108.640 355.775 108.674 355.662 108.740 C 355.549 108.805 355.455 108.899 355.390 109.012 C 355.325 109.125 355.290 109.253 355.290 109.384 C 355.290 109.479 355.265 109.573 355.217 109.655 C 355.170 109.738 355.101 109.806 355.019 109.854 C 354.936 109.902 354.842 109.927 354.747 109.927 C 354.651 109.927 354.558 109.902 354.475 109.854 C 354.392 109.806 354.324 109.738 354.276 109.655 C 354.228 109.573 354.203 109.479 354.203 109.384 C 354.203 109.253 354.169 109.125 354.104 109.012 C 354.038 108.899 353.945 108.805 353.832 108.740 C 353.719 108.674 353.590 108.640 353.460 108.640 C 353.329 108.640 353.201 108.674 353.088 108.740 C 352.975 108.805 352.881 108.899 352.816 109.012 C 352.751 109.125 352.716 109.253 352.716 109.384 C 352.716 109.479 352.691 109.573 352.643 109.655 C 352.596 109.738 352.527 109.806 352.445 109.854 C 352.362 109.902 352.268 109.927 352.173 109.927 C 352.077 109.927 351.984 109.902 351.901 109.854 C 351.818 109.806 351.750 109.738 351.702 109.655 C 351.654 109.573 351.629 109.479 351.629 109.384 C 351.629 109.253 351.595 109.125 351.530 109.012 C 351.464 108.899 351.371 108.805 351.258 108.740 C 351.145 108.674 351.016 108.640 350.886 108.640 C 350.755 108.640 350.627 108.674 350.514 108.740 C 350.401 108.805 350.307 108.899 350.242 109.012 C 350.177 109.125 350.142 109.253 350.142 109.384 C 350.142 109.479 350.117 109.573 350.069 109.655 C 350.022 109.738 349.953 109.806 349.871 109.854 C 349.788 109.902 349.694 109.927 349.599 109.927 C 349.503 109.927 349.410 109.902 349.327 109.854 C 349.244 109.806 349.176 109.738 349.128 109.655 C 349.080 109.573 349.055 109.479 349.055 109.384 C 349.055 109.253 349.021 109.125 348.956 109.012 C 348.890 108.899 348.797 108.805 348.684 108.740 C 348.571 108.674 348.442 108.640 348.312 108.640 C 348.157 108.640 348.006 108.681 347.872 108.758 C 347.738 108.835 347.627 108.946 347.550 109.080 C 347.472 109.214 347.432 109.366 347.432 109.520 V 112.852 C 347.432 112.952 347.532 112.852 347.432 112.852 H 334.528 C 334.428 112.852 334.528 112.952 334.528 112.852 V 109.520 C 334.528 109.465 334.483 109.420 334.428 109.420 H 310.866 H 247.106 H 223.544 H 213.504 C 213.449 109.420 213.404 109.465 213.404 109.520 V 112.540 C 213.404 112.640 213.504 112.540 213.404 112.540 H 207.364 C 207.264 112.540 207.364 112.640 207.364 112.540 V 109.520 C 207.364 109.465 207.319 109.420 207.264 109.420 H 201.024 C 200.969 109.420 200.924 109.465 200.924 109.520 V 112.540 C 200.924 112.640 201.024 112.540 200.924 112.540 H 194.884 C 194.784 112.540 194.884 112.640 194.884 112.540 V 109.520 C 194.884 109.465 194.839 109.420 194.784 109.420 H 188.544 C 188.489 109.420 188.444 109.465 188.444 109.520 V 112.540 C 188.444 112.640 188.544 112.540 188.444 112.540 H 182.404 C 182.304 112.540 182.404 112.640 182.404 112.540 V 109.520 C 182.404 109.465 182.359 109.420 182.304 109.420 H 176.064 C 176.009 109.420 175.964 109.465 175.964 109.520 V 112.540 C 175.964 112.640 176.064 112.540 175.964 112.540 H 169.924 C 169.824 112.540 169.924 112.640 169.924 112.540 V 109.520 C 169.924 109.465 169.879 109.420 169.824 109.420 H 159.784 H 136.222 H 126.182 C 126.127 109.420 126.082 109.465 126.082 109.520 V 112.540 C 126.082 112.640 126.182 112.540 126.082 112.540 H 120.042 C 119.942 112.540 120.042 112.640 120.042 112.540 V 109.520 C 120.042 109.465 119.997 109.420 119.942 109.420 H 113.702 C 113.647 109.420 113.602 109.465 113.602 109.520 V 112.540 C 113.602 112.640 113.702 112.540 113.602 112.540 H 107.562 C 107.462 112.540 107.562 112.640 107.562 112.540 V 109.520 C 107.562 109.465 107.517 109.420 107.462 109.420 H 101.222 C 101.167 109.420 101.122 109.465 101.122 109.520 V 112.540 C 101.122 112.640 101.222 112.540 101.122 112.540 H 95.082 C 94.982 112.540 95.082 112.640 95.082 112.540 V 109.520 C 95.082 109.465 95.037 109.420 94.982 109.420 H 88.742 C 88.687 109.420 88.642 109.465 88.642 109.520 V 112.540 C 88.642 112.640 88.742 112.540 88.642 112.540 H 82.602 C 82.502 112.540 82.602 112.640 82.602 112.540 V 109.520 C 82.602 109.465 82.557 109.420 82.502 109.420 H 72.462 H 48.900 H 38.860 C 38.805 109.420 38.760 109.465 38.760 109.520 V 112.540 C 38.760 112.640 38.860 112.540 38.760 112.540 H 32.720 C 32.620 112.540 32.720 112.640 32.720 112.540 V 109.520 C 32.720 109.465 32.675 109.420 32.620 109.420 H 26.380 C 26.325 109.420 26.280 109.465 26.280 109.520 V 112.540 C 26.280 112.640 26.380 112.540 26.280 112.540 H 20.240 C 20.140 112.540 20.240 112.640 20.240 112.540 V 109.520 C 20.240 109.465 20.195 109.420 20.140 109.420 H 10.100 C 10.045 109.420 10.000 109.465 10.000 109.520 V 209.520 C 10.000 209.575 10.045 209.620 10.100 209.620" stroke="rgb(0,0,0)" stroke-width="0.20" />
  <path d="M 50.541 209.620 V 193.440 M 50.541 190.320 V 161.080 M 50.541 157.960 V 128.720 M 50.541 125.600 V 109.420 M 52.101 112.540 V 141.780 M 52.101 144.900 V 174.140 M 52.101 177.260 V 206.500 M 53.661 209.620 V 193.440 M 53.661 190.320 V 161.080 M 53.661 157.960 V 128.720 M 53.661 125.600 V 109.420 M 55.221 112.540 V 141.780 M 55.221 144.900 V 174.140 M 55.221 177.260 V 206.500 M 56.781 209.620 V 193.440 M 56.781 190.320 V 161.080 M 56.781 157.960 V 128.720 M 56.781 125.600 V 109.420 M 58.341 112.540 V 141.780 M 58.341 144.900 V 174.140 M 58.341 177.260 V 206.500 M 59.901 209.620 V 193.440 M 59.901 190.320 V 161.080 M 59.901 157.960 V 128.720 M 59.901 125.600 V 109.420 M 61.461 112.540 V 141.780 M 61.461 144.900 V 174.140 M 61.461 177.260 V 206.500 M 63.021 209.620 V 193.440 M 63.021 190.320 V 161.080 M 63.021 157.960 V 128.720 M 63.021 125.600 V 109.420 M 64.581 112.540 V 141.780 M 64.581 144.900 V 174.140 M 64.581 177.260 V 206.500 M 66.141 209.620 V 193.440 M 66.141 190.320 V 161.080 M 66.141 157.960 V 128.720 M 66.141 125.600 V 109.420 M 67.701 112.540 V 141.780 M 67.701 144.900 V 174.140 M 67.701 177.260 V 206.500 M 69.261 209.620 V 193.440 M 69.261 190.320 V 161.080 M 69.261 157.960 V 128.720 M 69.261 125.600 V 109.420 M 70.821 112.540 V 141.780 M 70.821 144.900 V 174.140 M 70.821 177.260 V 206.500" stroke="rgb(0,0,0)" stroke-width="0.20" />
  <path d="M 137.863 209.620 V 193.440 M 137.863 190.320 V 161.080 M 137.863 157.960 V 128.720 M 137.863 125.600 V 109.420 M 139.423 112.540 V 141.780 M 139.423 144.900 V 174.140 M 139.423 177.260 V 206.500 M 140.983 209.620 V 193.440 M 140.983 190.320 V 161.080 M 140.983 157.960 V 128.720 M 140.983 125.600 V 109.420 M 142.543 112.540 V 141.780 M 142.543 144.900 V 174.140 M 142.543 177.260 V 206.500 M 144.103 209.620 V 193.440 M 144.103 190.320 V 161.080 M 144.103 157.960 V 128.720 M 144.103 125.600 V 109.420 M 145.663 112.540 V 141.780 M 145.663 144.900 V 174.140 M 145.663 177.260 V 206.500 M 147.223 209.620 V 193.440 M 147.223 190.320 V 161.080 M 147.223 157.960 V 128.720 M 147.223 125.600 V 109.420 M 148.783 112.540 V 141.780 M 148.783 144.900 V 174.140 M 148.783 177.260 V 206.500 M 150.343 209.620 V 193.440 M 150.343 190.320 V 161.080 M 150.343 157.960 V 128.720 M 150.343 125.600 V 109.420 M 151.903 112.540 V 141.780 M 151.903 144.900 V 174.140 M 151.903 177.260 V 206.500 M 153.463 209.620 V 193.440 M 153.463 190.320 V 161.080 M 153.463 157.960 V 128.720 M 153.463 125.600 V 109.420 M 155.023 112.540 V 141.780 M 155.023 144.900 V 174.140 M 155.023 177.260 V 206.500 M 156.583 209.620 V 193.440 M 156.583 190.320 V 161.080 M 156.583 157.960 V 128.720 M 156.583 125.600 V 109.420 M 158.143 112.540 V 141.780 M 158.143 144.900 V 174.140 M 158.143 177.260 V 206.500" stroke="rgb(0,0,0)" stroke-width="0.20" />
  <path d="M 225.185 209.620 V 193.440 M 225.185 190.320 V 161.080 M 225.185 157.960 V 128.720 M 225.185 125.600 V 109.420 M 226.745 112.540 V 141.780 M 226.745 144.900 V 174.140 M 226.745 177.260 V 206.500 M 228.305 209.620 V 193.440 M 228.305 190.320 V 161.080 M 228.305 157.960 V 128.720 M 228.305 125.600 V 109.420 M 229.865 112.540 V 141.780 M 229.865 144.900 V 174.140 M 229.865 177.260 V 206.500 M 231.425 209.620 V 193.440 M 231.425 190.320 V 161.080 M 231.425 157.960 V 128.720 M 231.425 125.600 V 109.420 M 232.985 112.540 V 141.780 M 232.985 144.900 V 174.140 M 232.985 177.260 V 206.500 M 234.545 209.620 V 193.440 M 234.545 190.320 V 161.080 M 234.545 157.960 V 128.720 M 234.545 125.600 V 109.420 M 236.105 112.540 V 141.780 M 236.105 144.900 V 174.140 M 236.105 177.260 V 206.500 M 237.665 209.620 V 193.440 M 237.665 190.320 V 161.080 M 237.665 157.960 V 128.720 M 237.665 125.600 V 109.420 M 239.225 112.540 V 141.780 M 239.225 144.900 V 174.140 M 239.225 177.260 V 206.500 M 240.785 209.620 V 193.440 M 240.785 190.320 V 161.080 M 240.785 157.960 V 128.720 M 240.785 125.600 V 109.420 M 242.345 112.540 V 141.780 M 242.345 144.900 V 174.140 M 242.345 177.260 V 206.500 M 243.905 209.620 V 193.440 M 243.905 190.320 V 161.080 M 243.905 157.960 V 128.720 M 243.905 125.600 V 109.420 M 245.465 112.540 V 141.780 M 245.465 144.900 V 174.140 M 245.465 177.260 V 206.500" stroke="rgb(0,0,0)" stroke-width="0.20" />
  <path d="M 312.507 209.620 V 193.440 M 312.507 190.320 V 161.080 M 312.507 157.960 V 128.720 M 312.507 125.600 V 109.420 M 314.067 112.540 V 141.780 M 314.067 144.900 V 174.140 M 314.067 177.260 V 206.500 M 315.627 209.620 V 193.440 M 315.627 190.320 V 161.080 M 315.627 157.960 V 128.720 M 315.627 125.600 V 109.420 M 317.187 112.540 V 141.780 M 317.187 144.900 V 174.140 M 317.187 177.260 V 206.500 M 318.747 209.620 V 193.440 M 318.747 190.320 V 161.080 M 318.747 157.960 V 128.720 M 318.747 125.600 V 109.420 M 320.307 112.540 V 141.780 M 320.307 144.900 V 174.140 M 320.307 177.260 V 206.500 M 321.867 209.620 V 193.440 M 321.867 190.320 V 161.080 M 321.867 157.960 V 128.720 M 321.867 125.600 V 109.420 M 323.427 112.540 V 141.780 M 323.427 144.900 V 174.140 M 323.427 177.260 V 206.500 M 324.987 209.620 V 193.440 M 324.987 190.320 V 161.080 M 324.987 157.960 V 128.720 M 324.987 125.600 V 109.420 M 326.547 112.540 V 141.780 M 326.547 144.900 V 174.140 M 326.547 177.260 V 206.500 M 328.107 209.620 V 193.440 M 328.107 190.320 V 161.080 M 328.107 157.960 V 128.720 M 328.107 125.600 V 109.420 M 329.667 112.540 V 141.780 M 329.667 144.900 V 174.140 M 329.667 177.260 V 206.500 M 331.227 209.620 V 193.440 M 331.227 190.320 V 161.080 M 331.227 157.960 V 128.720 M 331.227 125.600 V 109.420 M 332.787 112.540 V 141.780 M 332.787 144.900 V 174.140 M 332.787 177.260 V 206.500" stroke="rgb(0,0,0)" stroke-width="0.20" />
</g>
<g id="p-1" style="fill:none;stroke-linecap:round;stroke-linejoin:round;">
  <text alignment-baseline="hanging" font-size="4px" style="font-family: sans-serif ; font-weight: normal; font-style: normal; fill: rgb(255,0,0)" text-anchor="middle" transform="matrix( 1.000 0.000 0.000 1.000 60.100 56.640 )" /><path d="M 28.220 103.960 H 38.160 C 38.260 103.960 38.160 103.860 38.160 103.960 V 106.980 C 38.160 107.035 38.205 107.080 38.260 107.080 H 44.500 C 44.555 107.080 44.600 107.035 44.600 106.980 V 103.960 C 44.600 103.860 44.500 103.960 44.600 103.960 H 50.640 C 50.740 103.960 50.640 103.860 50.640 103.960 V 106.980 C 50.640 107.035 50.685 107.080 50.740 107.080 H 56.980 C 57.035 107.080 57.080 107.035 57.080 106.980 V 103.960 C 57.080 103.860 56.980 103.960 57.080 103.960 H 63.120 C 63.220 103.960 63.120 103.860 63.120 103.960 V 106.980 C 63.120 107.035 63.165 107.080 63.220 107.080 H 69.460 C 69.515 107.080 69.560 107.035 69.560 106.980 V 103.960 C 69.560 103.860 69.460 103.960 69.560 103.960 H 75.600 C 75.700 103.960 75.600 103.860 75.600 103.960 V 106.980 C 75.600 107.035 75.645 107.080 75.700 107.080 H 81.940 C 81.995 107.080 82.040 107.035 82.040 106.980 V 103.960 C 82.040 103.860 81.940 103.960 82.040 103.960 H 91.980 C 94.631 103.960 97.235 103.262 99.530 101.937 C 101.825 100.612 103.732 98.705 105.057 96.410 C 106.382 94.115 107.080 91.511 107.080 88.860 V 78.920 C 107.080 78.820 106.980 78.920 107.080 78.920 H 110.100 C 110.155 78.920 110.200 78.875 110.200 78.820 V 72.580 C 110.200 72.525 110.155 72.480 110.100 72.480 H 107.080 C 106.980 72.480 107.080 72.580 107.080 72.480 V 66.440 C 107.080 66.340 106.980 66.440 107.080 66.440 H 110.100 C 110.155 66.440 110.200 66.395 110.200 66.340 V 60.100 C 110.200 60.045 110.155 60.000 110.100 60.000 H 107.080 C 106.980 60.000 107.080 60.100 107.080 60.000 V 53.960 C 107.080 53.860 106.980 53.960 107.080 53.960 H 110.100 C 110.155 53.960 110.200 53.915 110.200 53.860 V 47.620 C 110.200 47.565 110.155 47.520 110.100 47.520 H 107.080 C 106.980 47.520 107.080 47.620 107.080 47.520 V 41.480 C 107.080 41.380 106.980 41.480 107.080 41.480 H 110.100 C 110.155 41.480 110.200 41.435 110.200 41.380 V 35.140 C 110.200 35.085 110.155 35.040 110.100 35.040 H 107.080 C 106.980 35.040 107.080 35.140 107.080 35.040 V 25.100 C 107.080 22.449 106.382 19.845 105.057 17.550 C 103.732 15.255 101.825 13.348 99.530 12.023 C 97.235 10.698 94.631 10.000 91.980 10.000 H 28.220 C 25.569 10.000 22.965 10.698 20.670 12.023 C 18.375 13.348 16.468 15.255 15.143 17.550 C 13.818 19.845 13.120 22.449 13.120 25.100 C 13.120 25.045 13.165 25.000 13.220 25.000 H 10.100 C 10.045 25.000 10.000 25.045 10.000 25.100 V 37.580 C 10.000 37.635 10.045 37.680 10.100 37.680 H 13.120 C 13.220 37.680 13.120 37.580 13.120 37.680 V 50.060 V 60.000 C 13.120 60.100 13.220 60.000 13.120 60.000 H 10.100 C 10.045 60.000 10.000 60.045 10.000 60.100 V 66.340 C 10.000 66.395 10.045 66.440 10.100 66.440 H 13.120 C 13.220 66.440 13.120 66.340 13.120 66.440 V 72.480 C 13.120 72.580 13.220 72.480 13.120 72.480 H 10.100 C 10.045 72.480 10.000 72.525 10.000 72.580 V 78.820 C 10.000 78.875 10.045 78.920 10.100 78.920 H 13.120 C 13.220 78.920 13.120 78.820 13.120 78.920 V 88.860 C 13.120 91.511 13.818 94.115 15.143 96.410 C 16.468 98.705 18.375 100.612 20.670 101.937 C 22.965 103.262 25.569 103.960 28.220 103.960" stroke="rgb(0,0,0)" stroke-width="0.20" />
</g>
<g id="p-2" style="fill:none;stroke-linecap:round;stroke-linejoin:round;">
  <text alignment-baseline="hanging" font-size="4px" style="font-family: sans-serif ; font-weight: normal; font-style: normal; fill: rgb(255,0,0)" text-anchor="middle" transform="matrix( 1.000 0.000 0.000 1.000 161.860 56.640 )" /><path d="M 193.740 103.960 H 183.800 C 183.700 103.960 183.800 103.860 183.800 103.960 V 106.980 C 183.800 107.035 183.755 107.080 183.700 107.080 H 177.460 C 177.405 107.080 177.360 107.035 177.360 106.980 V 103.960 C 177.360 103.860 177.460 103.960 177.360 103.960 H 171.320 C 171.220 103.960 171.320 103.860 171.320 103.960 V 106.980 C 171.320 107.035 171.275 107.080 171.220 107.080 H 164.980 C 164.925 107.080 164.880 107.035 164.880 106.980 V 103.960 C 164.880 103.860 164.980 103.960 164.880 103.960 H 158.840 C 158.740 103.960 158.840 103.860 158.840 103.960 V 106.980 C 158.840 107.035 158.795 107.080 158.740 107.080 H 152.500 C 152.445 107.080 152.400 107.035 152.400 106.980 V 103.960 C 152.400 103.860 152.500 103.960 152.400 103.960 H 146.360 C 146.260 103.960 146.360 103.860 146.360 103.960 V 106.980 C 146.360 107.035 146.315 107.080 146.260 107.080 H 140.020 C 139.965 107.080 139.920 107.035 139.920 106.980 V 103.960 C 139.920 103.860 140.020 103.960 139.920 103.960 H 129.980 C 127.329 103.960 124.725 103.262 122.430 101.937 C 120.135 100.612 118.228 98.705 116.903 96.410 C 115.578 94.115 114.880 91.511 114.880 88.860 V 78.920 C 114.880 78.820 114.980 78.920 114.880 78.920 H 111.860 C 111.805 78.920 111.760 78.875 111.760 78.820 V 72.580 C 111.760 72.525 111.805 72.480 111.860 72.480 H 114.880 C 114.980 72.480 114.880 72.580 114.880 72.480 V 66.440 C 114.880 66.340 114.980 66.440 114.880 66.440 H 111.860 C 111.805 66.440 111.760 66.395 111.760 66.340 V 60.100 C 111.760 60.045 111.805 60.000 111.860 60.000 H 114.880 C 114.980 60.000 114.880 60.100 114.880 60.000 V 53.960 C 114.880 53.860 114.980 53.960 114.880 53.960 H 111.860 C 111.805 53.960 111.760 53.915 111.760 53.860 V 47.620 C 111.760 47.565 111.805 47.520 111.860 47.520 H 114.880 C 114.980 47.520 114.880 47.620 114.880 47.520 V 41.480 C 114.880 41.380 114.980 41.480 114.880 41.480 H 111.860 C 111.805 41.480 111.760 41.435 111.760 41.380 V 35.140 C 111.760 35.085 111.805 35.040 111.860 35.040 H 114.880 C 114.980 35.040 114.880 35.140 114.880 35.040 V 25.100 C 114.880 22.449 115.578 19.845 116.903 17.550 C 118.228 15.255 120.135 13.348 122.430 12.023 C 124.725 10.698 127.329 10.000 129.980 10.000 H 193.740 C 196.391 10.000 198.995 10.698 201.290 12.023 C 203.585 13.348 205.492 15.255 206.817 17.550 C 208.142 19.845 208.840 22.449 208.840 25.100 C 208.840 25.045 208.795 25.000 208.740 25.000 H 211.860 C 211.915 25.000 211.960 25.045 211.960 25.100 V 37.580 C 211.960 37.635 211.915 37.680 211.860 37.680 H 208.840 C 208.740 37.680 208.840 37.580 208.840 37.680 V 50.060 V 60.000 C 208.840 60.100 208.740 60.000 208.840 60.000 H 211.860 C 211.915 60.000 211.960 60.045 211.960 60.100 V 66.340 C 211.960 66.395 211.915 66.440 211.860 66.440 H 208.840 C 208.740 66.440 208.840 66.340 208.840 66.440 V 72.480 C 208.840 72.580 208.740 72.480 208.840 72.480 H 211.860 C 211.915 72.480 211.960 72.525 211.960 72.580 V 78.820 C 211.960 78.875 211.915 78.920 211.860 78.920 H 208.840 C 208.740 78.920 208.840 78.820 208.840 78.920 V 88.860 C 208.840 91.511 208.142 94.115 206.817 96.410 C 205.492 98.705 203.585 100.612 201.290 101.937 C 198.995 103.262 196.391 103.960 193.740 103.960" stroke="rgb(0,0,0)" stroke-width="0.20" />
</g>
</svg>