<?xml version="1.0" encoding="utf-8"?>
<!-- Generator: Adobe Illustrator 25.4.1, SVG Export Plug-In . SVG Version: 6.00 Build 0)  -->
<svg version="1.1"
	 id="Layer_1" xmlns:cc="http://creativecommons.org/ns#" xmlns:dc="http://purl.org/dc/elements/1.1/" xmlns:inkscape="http://www.inkscape.org/namespaces/inkscape" xmlns:rdf="http://www.w3.org/1999/02/22-rdf-syntax-ns#" xmlns:svg="http://www.w3.org/2000/svg"
	 xmlns="http://www.w3.org/2000/svg" xmlns:xlink="http://www.w3.org/1999/xlink" x="0px" y="0px" viewBox="0 0 1047.4 624.8"
	 style="enable-background:new 0 0 1047.4 624.8;" xml:space="preserve">
<style type="text/css">
	.st0{fill:none;stroke:#000000;stroke-width:0.5669;stroke-linecap:round;stroke-linejoin:round;stroke-miterlimit:11.3386;}
</style>
<g id="p-0">
	<path class="st0" d="M28.6,594.2h28.5c0.2,0,0.3-0.1,0.3-0.3v-8.6c0-0.3-0.3,0,0,0h17.1c0.3,0,0-0.3,0,0v8.6c0,0.2,0.1,0.3,0.3,0.3
		h17.7c0.2,0,0.3-0.1,0.3-0.3v-8.6c0-0.3-0.3,0,0,0h17.1c0.3,0,0-0.3,0,0v8.6c0,0.2,0.1,0.3,0.3,0.3h28.5h66.8h28.5
		c0.2,0,0.3-0.1,0.3-0.3v-8.6c0-0.3-0.3,0,0,0h17.1c0.3,0,0-0.3,0,0v8.6c0,0.2,0.1,0.3,0.3,0.3h17.7c0.2,0,0.3-0.1,0.3-0.3v-8.6
		c0-0.3-0.3,0,0,0h17.1c0.3,0,0-0.3,0,0v8.6c0,0.2,0.1,0.3,0.3,0.3h17.7c0.2,0,0.3-0.1,0.3-0.3v-8.6c0-0.3-0.3,0,0,0H322
		c0.3,0,0-0.3,0,0v8.6c0,0.2,0.1,0.3,0.3,0.3H340c0.2,0,0.3-0.1,0.3-0.3v-8.6c0-0.3-0.3,0,0,0h17.1c0.3,0,0-0.3,0,0v8.6
		c0,0.2,0.1,0.3,0.3,0.3h28.5h66.8h28.5c0.2,0,0.3-0.1,0.3-0.3v-8.6c0-0.3-0.3,0,0,0h17.1c0.3,0,0-0.3,0,0v8.6
		c0,0.2,0.1,0.3,0.3,0.3h17.7c0.2,0,0.3-0.1,0.3-0.3v-8.6c0-0.3-0.3,0,0,0h17.1c0.3,0,0-0.3,0,0v8.6c0,0.2,0.1,0.3,0.3,0.3h17.7
		c0.2,0,0.3-0.1,0.3-0.3v-8.6c0-0.3-0.3,0,0,0h17.1c0.3,0,0-0.3,0,0v8.6c0,0.2,0.1,0.3,0.3,0.3h17.7c0.2,0,0.3-0.1,0.3-0.3v-8.6
		c0-0.3-0.3,0,0,0h17.1c0.3,0,0-0.3,0,0v8.6c0,0.2,0.1,0.3,0.3,0.3h28.5h66.8h180.7H948c0.2,0,0.3-0.1,0.3-0.3v-9.4c0-0.3-0.3,0,0,0
		h36.6c0.3,0,0-0.3,0,0v9.4c0,0.4,0.1,0.9,0.3,1.2c0.2,0.4,0.5,0.7,0.9,0.9c0.4,0.2,0.8,0.3,1.2,0.3c0.4,0,0.7-0.1,1.1-0.3
		c0.3-0.2,0.6-0.5,0.8-0.8c0.2-0.3,0.3-0.7,0.3-1.1c0-0.3,0.1-0.5,0.2-0.8c0.1-0.2,0.3-0.4,0.6-0.6s0.5-0.2,0.8-0.2
		c0.3,0,0.5,0.1,0.8,0.2c0.2,0.1,0.4,0.3,0.6,0.6c0.1,0.2,0.2,0.5,0.2,0.8c0,0.4,0.1,0.7,0.3,1.1c0.2,0.3,0.5,0.6,0.8,0.8
		c0.3,0.2,0.7,0.3,1.1,0.3c0.4,0,0.7-0.1,1.1-0.3c0.3-0.2,0.6-0.5,0.8-0.8c0.2-0.3,0.3-0.7,0.3-1.1c0-0.3,0.1-0.5,0.2-0.8
		c0.1-0.2,0.3-0.4,0.6-0.6s0.5-0.2,0.8-0.2c0.3,0,0.5,0.1,0.8,0.2c0.2,0.1,0.4,0.3,0.6,0.6c0.1,0.2,0.2,0.5,0.2,0.8
		c0,0.4,0.1,0.7,0.3,1.1c0.2,0.3,0.5,0.6,0.8,0.8c0.3,0.2,0.7,0.3,1.1,0.3c0.4,0,0.7-0.1,1.1-0.3c0.3-0.2,0.6-0.5,0.8-0.8
		c0.2-0.3,0.3-0.7,0.3-1.1c0-0.3,0.1-0.5,0.2-0.8c0.1-0.2,0.3-0.4,0.6-0.6s0.5-0.2,0.8-0.2c0.3,0,0.5,0.1,0.8,0.2
		c0.2,0.1,0.4,0.3,0.6,0.6c0.1,0.2,0.2,0.5,0.2,0.8c0,0.4,0.1,0.7,0.3,1.1c0.2,0.3,0.5,0.6,0.8,0.8c0.3,0.2,0.7,0.3,1.1,0.3
		c0.4,0,0.7-0.1,1.1-0.3c0.3-0.2,0.6-0.5,0.8-0.8c0.2-0.3,0.3-0.7,0.3-1.1c0-0.3,0.1-0.5,0.2-0.8c0.1-0.2,0.3-0.4,0.6-0.6
		c0.2-0.1,0.5-0.2,0.8-0.2c0.3,0,0.5,0.1,0.8,0.2c0.2,0.1,0.4,0.3,0.6,0.6c0.1,0.2,0.2,0.5,0.2,0.8c0,0.4,0.1,0.7,0.3,1.1
		c0.2,0.3,0.5,0.6,0.8,0.8c0.3,0.2,0.7,0.3,1.1,0.3c0.4,0,0.9-0.1,1.2-0.3c0.4-0.2,0.7-0.5,0.9-0.9c0.2-0.4,0.3-0.8,0.3-1.2V310.5
		c0-0.4-0.1-0.9-0.3-1.2s-0.5-0.7-0.9-0.9c-0.4-0.2-0.8-0.3-1.2-0.3c-0.4,0-0.7,0.1-1.1,0.3c-0.3,0.2-0.6,0.5-0.8,0.8
		c-0.2,0.3-0.3,0.7-0.3,1.1c0,0.3-0.1,0.5-0.2,0.8c-0.1,0.2-0.3,0.4-0.6,0.6c-0.2,0.1-0.5,0.2-0.8,0.2c-0.3,0-0.5-0.1-0.8-0.2
		c-0.2-0.1-0.4-0.3-0.6-0.6c-0.1-0.2-0.2-0.5-0.2-0.8c0-0.4-0.1-0.7-0.3-1.1c-0.2-0.3-0.5-0.6-0.8-0.8c-0.3-0.2-0.7-0.3-1.1-0.3
		c-0.4,0-0.7,0.1-1.1,0.3c-0.3,0.2-0.6,0.5-0.8,0.8c-0.2,0.3-0.3,0.7-0.3,1.1c0,0.3-0.1,0.5-0.2,0.8c-0.1,0.2-0.3,0.4-0.6,0.6
		c-0.2,0.1-0.5,0.2-0.8,0.2c-0.3,0-0.5-0.1-0.8-0.2c-0.2-0.1-0.4-0.3-0.6-0.6c-0.1-0.2-0.2-0.5-0.2-0.8c0-0.4-0.1-0.7-0.3-1.1
		c-0.2-0.3-0.5-0.6-0.8-0.8c-0.3-0.2-0.7-0.3-1.1-0.3c-0.4,0-0.7,0.1-1.1,0.3c-0.3,0.2-0.6,0.5-0.8,0.8s-0.3,0.7-0.3,1.1
		c0,0.3-0.1,0.5-0.2,0.8c-0.1,0.2-0.3,0.4-0.6,0.6c-0.2,0.1-0.5,0.2-0.8,0.2c-0.3,0-0.5-0.1-0.8-0.2c-0.2-0.1-0.4-0.3-0.6-0.6
		c-0.1-0.2-0.2-0.5-0.2-0.8c0-0.4-0.1-0.7-0.3-1.1c-0.2-0.3-0.5-0.6-0.8-0.8c-0.3-0.2-0.7-0.3-1.1-0.3c-0.4,0-0.7,0.1-1.1,0.3
		c-0.3,0.2-0.6,0.5-0.8,0.8c-0.2,0.3-0.3,0.7-0.3,1.1c0,0.3-0.1,0.5-0.2,0.8c-0.1,0.2-0.3,0.4-0.6,0.6c-0.2,0.1-0.5,0.2-0.8,0.2
		c-0.3,0-0.5-0.1-0.8-0.2c-0.2-0.1-0.4-0.3-0.6-0.6c-0.1-0.2-0.2-0.5-0.2-0.8c0-0.4-0.1-0.7-0.3-1.1c-0.2-0.3-0.5-0.6-0.8-0.8
		c-0.3-0.2-0.7-0.3-1.1-0.3c-0.4,0-0.9,0.1-1.2,0.3c-0.4,0.2-0.7,0.5-0.9,0.9c-0.2,0.4-0.3,0.8-0.3,1.2v9.4c0,0.3,0.3,0,0,0h-36.6
		c-0.3,0,0,0.3,0,0v-9.4c0-0.2-0.1-0.3-0.3-0.3h-66.8H700.5h-66.8h-28.5c-0.2,0-0.3,0.1-0.3,0.3v8.6c0,0.3,0.3,0,0,0h-17.1
		c-0.3,0,0,0.3,0,0v-8.6c0-0.2-0.1-0.3-0.3-0.3h-17.7c-0.2,0-0.3,0.1-0.3,0.3v8.6c0,0.3,0.3,0,0,0h-17.1c-0.3,0,0,0.3,0,0v-8.6
		c0-0.2-0.1-0.3-0.3-0.3h-17.7c-0.2,0-0.3,0.1-0.3,0.3v8.6c0,0.3,0.3,0,0,0h-17.1c-0.3,0,0,0.3,0,0v-8.6c0-0.2-0.1-0.3-0.3-0.3
		h-17.7c-0.2,0-0.3,0.1-0.3,0.3v8.6c0,0.3,0.3,0,0,0h-17.1c-0.3,0,0,0.3,0,0v-8.6c0-0.2-0.1-0.3-0.3-0.3h-28.5h-66.8h-28.5
		c-0.2,0-0.3,0.1-0.3,0.3v8.6c0,0.3,0.3,0,0,0h-17.1c-0.3,0,0,0.3,0,0v-8.6c0-0.2-0.1-0.3-0.3-0.3h-17.7c-0.2,0-0.3,0.1-0.3,0.3v8.6
		c0,0.3,0.3,0,0,0h-17.1c-0.3,0,0,0.3,0,0v-8.6c0-0.2-0.1-0.3-0.3-0.3h-17.7c-0.2,0-0.3,0.1-0.3,0.3v8.6c0,0.3,0.3,0,0,0h-17.1
		c-0.3,0,0,0.3,0,0v-8.6c0-0.2-0.1-0.3-0.3-0.3h-17.7c-0.2,0-0.3,0.1-0.3,0.3v8.6c0,0.3,0.3,0,0,0h-17.1c-0.3,0,0,0.3,0,0v-8.6
		c0-0.2-0.1-0.3-0.3-0.3h-28.5h-66.8h-28.5c-0.2,0-0.3,0.1-0.3,0.3v8.6c0,0.3,0.3,0,0,0H92.7c-0.3,0,0,0.3,0,0v-8.6
		c0-0.2-0.1-0.3-0.3-0.3H74.8c-0.2,0-0.3,0.1-0.3,0.3v8.6c0,0.3,0.3,0,0,0H57.4c-0.3,0,0,0.3,0,0v-8.6c0-0.2-0.1-0.3-0.3-0.3H28.6
		c-0.2,0-0.3,0.1-0.3,0.3v283.5C28.3,594.1,28.5,594.2,28.6,594.2"/>
	<path class="st0" d="M143.3,594.2v-45.9 M143.3,539.5v-82.9 M143.3,447.8v-82.9 M143.3,356v-45.9 M147.7,319v82.9 M147.7,410.7
		v82.9 M147.7,502.5v82.9 M152.1,594.2v-45.9 M152.1,539.5v-82.9 M152.1,447.8v-82.9 M152.1,356v-45.9 M156.5,319v82.9 M156.5,410.7
		v82.9 M156.5,502.5v82.9 M161,594.2v-45.9 M161,539.5v-82.9 M161,447.8v-82.9 M161,356v-45.9 M165.4,319v82.9 M165.4,410.7v82.9
		 M165.4,502.5v82.9 M169.8,594.2v-45.9 M169.8,539.5v-82.9 M169.8,447.8v-82.9 M169.8,356v-45.9 M174.2,319v82.9 M174.2,410.7v82.9
		 M174.2,502.5v82.9 M178.6,594.2v-45.9 M178.6,539.5v-82.9 M178.6,447.8v-82.9 M178.6,356v-45.9 M183.1,319v82.9 M183.1,410.7v82.9
		 M183.1,502.5v82.9 M187.5,594.2v-45.9 M187.5,539.5v-82.9 M187.5,447.8v-82.9 M187.5,356v-45.9 M191.9,319v82.9 M191.9,410.7v82.9
		 M191.9,502.5v82.9 M196.3,594.2v-45.9 M196.3,539.5v-82.9 M196.3,447.8v-82.9 M196.3,356v-45.9 M200.8,319v82.9 M200.8,410.7v82.9
		 M200.8,502.5v82.9"/>
	<path class="st0" d="M390.8,594.2v-45.9 M390.8,539.5v-82.9 M390.8,447.8v-82.9 M390.8,356v-45.9 M395.2,319v82.9 M395.2,410.7
		v82.9 M395.2,502.5v82.9 M399.6,594.2v-45.9 M399.6,539.5v-82.9 M399.6,447.8v-82.9 M399.6,356v-45.9 M404.1,319v82.9 M404.1,410.7
		v82.9 M404.1,502.5v82.9 M408.5,594.2v-45.9 M408.5,539.5v-82.9 M408.5,447.8v-82.9 M408.5,356v-45.9 M412.9,319v82.9 M412.9,410.7
		v82.9 M412.9,502.5v82.9 M417.3,594.2v-45.9 M417.3,539.5v-82.9 M417.3,447.8v-82.9 M417.3,356v-45.9 M421.7,319v82.9 M421.7,410.7
		v82.9 M421.7,502.5v82.9 M426.2,594.2v-45.9 M426.2,539.5v-82.9 M426.2,447.8v-82.9 M426.2,356v-45.9 M430.6,319v82.9 M430.6,410.7
		v82.9 M430.6,502.5v82.9 M435,594.2v-45.9 M435,539.5v-82.9 M435,447.8v-82.9 M435,356v-45.9 M439.4,319v82.9 M439.4,410.7v82.9
		 M439.4,502.5v82.9 M443.9,594.2v-45.9 M443.9,539.5v-82.9 M443.9,447.8v-82.9 M443.9,356v-45.9 M448.3,319v82.9 M448.3,410.7v82.9
		 M448.3,502.5v82.9"/>
	<path class="st0" d="M638.3,594.2v-45.9 M638.3,539.5v-82.9 M638.3,447.8v-82.9 M638.3,356v-45.9 M642.7,319v82.9 M642.7,410.7
		v82.9 M642.7,502.5v82.9 M647.2,594.2v-45.9 M647.2,539.5v-82.9 M647.2,447.8v-82.9 M647.2,356v-45.9 M651.6,319v82.9 M651.6,410.7
		v82.9 M651.6,502.5v82.9 M656,594.2v-45.9 M656,539.5v-82.9 M656,447.8v-82.9 M656,356v-45.9 M660.4,319v82.9 M660.4,410.7v82.9
		 M660.4,502.5v82.9 M664.9,594.2v-45.9 M664.9,539.5v-82.9 M664.9,447.8v-82.9 M664.9,356v-45.9 M669.3,319v82.9 M669.3,410.7v82.9
		 M669.3,502.5v82.9 M673.7,594.2v-45.9 M673.7,539.5v-82.9 M673.7,447.8v-82.9 M673.7,356v-45.9 M678.1,319v82.9 M678.1,410.7v82.9
		 M678.1,502.5v82.9 M682.5,594.2v-45.9 M682.5,539.5v-82.9 M682.5,447.8v-82.9 M682.5,356v-45.9 M687,319v82.9 M687,410.7v82.9
		 M687,502.5v82.9 M691.4,594.2v-45.9 M691.4,539.5v-82.9 M691.4,447.8v-82.9 M691.4,356v-45.9 M695.8,319v82.9 M695.8,410.7v82.9
		 M695.8,502.5v82.9"/>
	<path class="st0" d="M885.8,594.2v-45.9 M885.8,539.5v-82.9 M885.8,447.8v-82.9 M885.8,356v-45.9 M890.3,319v82.9 M890.3,410.7
		v82.9 M890.3,502.5v82.9 M894.7,594.2v-45.9 M894.7,539.5v-82.9 M894.7,447.8v-82.9 M894.7,356v-45.9 M899.1,319v82.9 M899.1,410.7
		v82.9 M899.1,502.5v82.9 M903.5,594.2v-45.9 M903.5,539.5v-82.9 M903.5,447.8v-82.9 M903.5,356v-45.9 M908,319v82.9 M908,410.7
		v82.9 M908,502.5v82.9 M912.4,594.2v-45.9 M912.4,539.5v-82.9 M912.4,447.8v-82.9 M912.4,356v-45.9 M916.8,319v82.9 M916.8,410.7
		v82.9 M916.8,502.5v82.9 M921.2,594.2v-45.9 M921.2,539.5v-82.9 M921.2,447.8v-82.9 M921.2,356v-45.9 M925.6,319v82.9 M925.6,410.7
		v82.9 M925.6,502.5v82.9 M930.1,594.2v-45.9 M930.1,539.5v-82.9 M930.1,447.8v-82.9 M930.1,356v-45.9 M934.5,319v82.9 M934.5,410.7
		v82.9 M934.5,502.5v82.9 M938.9,594.2v-45.9 M938.9,539.5v-82.9 M938.9,447.8v-82.9 M938.9,356v-45.9 M943.3,319v82.9 M943.3,410.7
		v82.9 M943.3,502.5v82.9"/>
</g>
<g id="p-1">
	<path class="st0" d="M80,294.7h28.2c0.3,0,0-0.3,0,0v8.6c0,0.2,0.1,0.3,0.3,0.3h17.7c0.2,0,0.3-0.1,0.3-0.3v-8.6c0-0.3-0.3,0,0,0
		h17.1c0.3,0,0-0.3,0,0v8.6c0,0.2,0.1,0.3,0.3,0.3h17.7c0.2,0,0.3-0.1,0.3-0.3v-8.6c0-0.3-0.3,0,0,0h17.1c0.3,0,0-0.3,0,0v8.6
		c0,0.2,0.1,0.3,0.3,0.3h17.7c0.2,0,0.3-0.1,0.3-0.3v-8.6c0-0.3-0.3,0,0,0h17.1c0.3,0,0-0.3,0,0v8.6c0,0.2,0.1,0.3,0.3,0.3h17.7
		c0.2,0,0.3-0.1,0.3-0.3v-8.6c0-0.3-0.3,0,0,0h28.2c7.5,0,14.9-2,21.4-5.7s11.9-9.2,15.7-15.7c3.8-6.5,5.7-13.9,5.7-21.4v-28.2
		c0-0.3-0.3,0,0,0h8.6c0.2,0,0.3-0.1,0.3-0.3v-17.7c0-0.2-0.1-0.3-0.3-0.3h-8.6c-0.3,0,0,0.3,0,0v-17.1c0-0.3-0.3,0,0,0h8.6
		c0.2,0,0.3-0.1,0.3-0.3v-17.7c0-0.2-0.1-0.3-0.3-0.3h-8.6c-0.3,0,0,0.3,0,0V153c0-0.3-0.3,0,0,0h8.6c0.2,0,0.3-0.1,0.3-0.3V135
		c0-0.2-0.1-0.3-0.3-0.3h-8.6c-0.3,0,0,0.3,0,0v-17.1c0-0.3-0.3,0,0,0h8.6c0.2,0,0.3-0.1,0.3-0.3V99.6c0-0.2-0.1-0.3-0.3-0.3h-8.6
		c-0.3,0,0,0.3,0,0V71.1c0-7.5-2-14.9-5.7-21.4c-3.8-6.5-9.2-11.9-15.7-15.7c-6.5-3.8-13.9-5.7-21.4-5.7H80c-7.5,0-14.9,2-21.4,5.7
		c-6.5,3.8-11.9,9.2-15.7,15.7s-5.7,13.9-5.7,21.4c0-0.2,0.1-0.3,0.3-0.3h-8.8c-0.2,0-0.3,0.1-0.3,0.3v35.4c0,0.2,0.1,0.3,0.3,0.3
		h8.6c0.3,0,0-0.3,0,0v35.1v28.2c0,0.3,0.3,0,0,0h-8.6c-0.2,0-0.3,0.1-0.3,0.3v17.7c0,0.2,0.1,0.3,0.3,0.3h8.6c0.3,0,0-0.3,0,0v17.1
		c0,0.3,0.3,0,0,0h-8.6c-0.2,0-0.3,0.1-0.3,0.3v17.7c0,0.2,0.1,0.3,0.3,0.3h8.6c0.3,0,0-0.3,0,0v28.2c0,7.5,2,14.9,5.7,21.4
		s9.2,11.9,15.7,15.7S72.5,294.7,80,294.7"/>
</g>
<g id="p-2">
	<path class="st0" d="M549.2,294.7H521c-0.3,0,0-0.3,0,0v8.6c0,0.2-0.1,0.3-0.3,0.3H503c-0.2,0-0.3-0.1-0.3-0.3v-8.6
		c0-0.3,0.3,0,0,0h-17.1c-0.3,0,0-0.3,0,0v8.6c0,0.2-0.1,0.3-0.3,0.3h-17.7c-0.2,0-0.3-0.1-0.3-0.3v-8.6c0-0.3,0.3,0,0,0h-17.1
		c-0.3,0,0-0.3,0,0v8.6c0,0.2-0.1,0.3-0.3,0.3h-17.7c-0.2,0-0.3-0.1-0.3-0.3v-8.6c0-0.3,0.3,0,0,0h-17.1c-0.3,0,0-0.3,0,0v8.6
		c0,0.2-0.1,0.3-0.3,0.3h-17.7c-0.2,0-0.3-0.1-0.3-0.3v-8.6c0-0.3,0.3,0,0,0h-28.2c-7.5,0-14.9-2-21.4-5.7
		c-6.5-3.8-11.9-9.2-15.7-15.7s-5.7-13.9-5.7-21.4v-28.2c0-0.3,0.3,0,0,0h-8.6c-0.2,0-0.3-0.1-0.3-0.3v-17.7c0-0.2,0.1-0.3,0.3-0.3
		h8.6c0.3,0,0,0.3,0,0v-17.1c0-0.3,0.3,0,0,0h-8.6c-0.2,0-0.3-0.1-0.3-0.3v-17.7c0-0.2,0.1-0.3,0.3-0.3h8.6c0.3,0,0,0.3,0,0V153
		c0-0.3,0.3,0,0,0h-8.6c-0.2,0-0.3-0.1-0.3-0.3V135c0-0.2,0.1-0.3,0.3-0.3h8.6c0.3,0,0,0.3,0,0v-17.1c0-0.3,0.3,0,0,0h-8.6
		c-0.2,0-0.3-0.1-0.3-0.3V99.6c0-0.2,0.1-0.3,0.3-0.3h8.6c0.3,0,0,0.3,0,0V71.1c0-7.5,2-14.9,5.7-21.4s9.2-11.9,15.7-15.7
		c6.5-3.8,13.9-5.7,21.4-5.7h180.7c7.5,0,14.9,2,21.4,5.7c6.5,3.8,11.9,9.2,15.7,15.7c3.8,6.5,5.7,13.9,5.7,21.4
		c0-0.2-0.1-0.3-0.3-0.3h8.8c0.2,0,0.3,0.1,0.3,0.3v35.4c0,0.2-0.1,0.3-0.3,0.3H592c-0.3,0,0-0.3,0,0v35.1v28.2c0,0.3-0.3,0,0,0h8.6
		c0.2,0,0.3,0.1,0.3,0.3v17.7c0,0.2-0.1,0.3-0.3,0.3H592c-0.3,0,0-0.3,0,0v17.1c0,0.3-0.3,0,0,0h8.6c0.2,0,0.3,0.1,0.3,0.3v17.7
		c0,0.2-0.1,0.3-0.3,0.3H592c-0.3,0,0-0.3,0,0v28.2c0,7.5-2,14.9-5.7,21.4c-3.8,6.5-9.2,11.9-15.7,15.7
		C564.1,292.7,556.7,294.7,549.2,294.7"/>
</g>
<g>
	<path d="M108.6,167.4c2.8,1.7,6.9,3.2,11.2,3.2c6.4,0,10.2-3.4,10.2-8.3c0-4.5-2.6-7.1-9.1-9.6c-7.9-2.8-12.8-6.9-12.8-13.8
		c0-7.6,6.3-13.2,15.7-13.2c5,0,8.6,1.2,10.7,2.4l-1.7,5.1c-1.6-0.9-4.8-2.3-9.2-2.3c-6.6,0-9.1,4-9.1,7.3c0,4.5,3,6.8,9.6,9.4
		c8.2,3.2,12.4,7.1,12.4,14.3c0,7.5-5.5,14-17,14c-4.7,0-9.8-1.4-12.4-3.1L108.6,167.4z"/>
	<path d="M145,127.1c2.7-0.6,7.1-1,11.4-1c6.3,0,10.3,1.1,13.3,3.5c2.5,1.9,4,4.8,4,8.6c0,4.7-3.1,8.8-8.2,10.7v0.1
		c4.6,1.2,10,5,10,12.2c0,4.2-1.7,7.3-4.1,9.7c-3.4,3.1-8.9,4.5-16.8,4.5c-4.3,0-7.6-0.3-9.7-0.6V127.1z M151.2,147h5.7
		c6.6,0,10.5-3.5,10.5-8.1c0-5.7-4.3-7.9-10.7-7.9c-2.9,0-4.5,0.2-5.5,0.4V147z M151.2,170.3c1.2,0.2,3,0.3,5.3,0.3
		c6.5,0,12.5-2.4,12.5-9.4c0-6.6-5.7-9.4-12.5-9.4h-5.2V170.3z"/>
	<path d="M224.9,153.7c-0.4-6.8-0.8-14.9-0.7-21H224c-1.7,5.7-3.7,11.7-6.1,18.4l-8.6,23.5h-4.8l-7.8-23.1
		c-2.3-6.8-4.2-13.1-5.6-18.9h-0.1c-0.1,6-0.5,14.2-0.9,21.5l-1.3,20.8h-6l3.4-48.5h8l8.3,23.5c2,6,3.7,11.3,4.9,16.3h0.2
		c1.2-4.9,3-10.2,5.1-16.3l8.6-23.5h8l3,48.5h-6.1L224.9,153.7z"/>
</g>
</svg>
