<?xml version='1.0' encoding='us-ascii'?>
<svg height="727.49mm" viewBox="0.0 0.0 138.56 727.49" width="138.56mm" xmlns="http://www.w3.org/2000/svg" xmlns:cc="http://creativecommons.org/ns#" xmlns:dc="http://purl.org/dc/elements/1.1/" xmlns:inkscape="http://www.inkscape.org/namespaces/inkscape" xmlns:rdf="http://www.w3.org/1999/02/22-rdf-syntax-ns#" xmlns:svg="http://www.w3.org/2000/svg" xmlns:xlink="http://www.w3.org/1999/xlink">
<!--
IntegratedHingeBox - Box with lid and integraded hinge

Created with Boxes.py (https://festi.info/boxes.py)
Creation date: 2021-10-06 18:23:07
Command line (remove spaces between dashes): boxes IntegratedHingeBox - -FingerJoint_angle=90.0 - -FingerJoint_style=rectangular - -FingerJoint_surroundingspaces=2.0 - -FingerJoint_edge_width=1.0 - -FingerJoint_finger=2.0 - -FingerJoint_play=0.0 - -FingerJoint_space=2.0 - -FingerJoint_width=1.0 - -ChestHinge_hinge_strength=1.0 - -ChestHinge_pin_height=2.0 - -ChestHinge_play=0.1 - -x=100.0 - -y=100.0 - -h=100.0 - -outside=0 - -outside=1 - -lidheight=20.0 - -thickness=3.12 - -format=svg - -tabs=0.0 - -debug=0 - -labels=0 - -labels=1 - -reference=100 - -burn=0.1
Url: http://www.festi.info/IntegratedHingeBox?FingerJoint_angle=90.0&FingerJoint_style=rectangular&FingerJoint_surroundingspaces=2.0&FingerJoint_edge_width=1.0&FingerJoint_finger=2.0&FingerJoint_play=0.0&FingerJoint_space=2.0&FingerJoint_width=1.0&ChestHinge_hinge_strength=1.0&ChestHinge_pin_height=2.0&ChestHinge_play=0.1&x=100.0&y=100.0&h=100.0&outside=0&outside=1&lidheight=20.0&thickness=3.12&format=svg&tabs=0.0&debug=0&labels=0&labels=1&reference=100&burn=0.1&render=1
SettingsUrl: http://www.festi.info/IntegratedHingeBox?FingerJoint_angle=90.0&FingerJoint_style=rectangular&FingerJoint_surroundingspaces=2.0&FingerJoint_edge_width=1.0&FingerJoint_finger=2.0&FingerJoint_play=0.0&FingerJoint_space=2.0&FingerJoint_width=1.0&ChestHinge_hinge_strength=1.0&ChestHinge_pin_height=2.0&ChestHinge_play=0.1&x=100.0&y=100.0&h=100.0&outside=0&outside=1&lidheight=20.0&thickness=3.12&format=svg&tabs=0.0&debug=0&labels=0&labels=1&reference=100&burn=0.1
-->
<title>IntegratedHingeBox</title>
<metadata>
<rdf:RDF><cc:Work>
<dc:title>Box - IntegratedHingeBox</dc:title>
<dc:date>2021-10-06 18:23:07</dc:date>
<dc:source>http://www.festi.info/IntegratedHingeBox?FingerJoint_angle=90.0&amp;FingerJoint_style=rectangular&amp;FingerJoint_surroundingspaces=2.0&amp;FingerJoint_edge_width=1.0&amp;FingerJoint_finger=2.0&amp;FingerJoint_play=0.0&amp;FingerJoint_space=2.0&amp;FingerJoint_width=1.0&amp;ChestHinge_hinge_strength=1.0&amp;ChestHinge_pin_height=2.0&amp;ChestHinge_play=0.1&amp;x=100.0&amp;y=100.0&amp;h=100.0&amp;outside=0&amp;outside=1&amp;lidheight=20.0&amp;thickness=3.12&amp;format=svg&amp;tabs=0.0&amp;debug=0&amp;labels=0&amp;labels=1&amp;reference=100&amp;burn=0.1&amp;render=1</dc:source>
<dc:description>Box with lid and integraded hinge

Created with Boxes.py (https://festi.info/boxes.py)
Command line: boxes IntegratedHingeBox --FingerJoint_angle=90.0 --FingerJoint_style=rectangular --FingerJoint_surroundingspaces=2.0 --FingerJoint_edge_width=1.0 --FingerJoint_finger=2.0 --FingerJoint_play=0.0 --FingerJoint_space=2.0 --FingerJoint_width=1.0 --ChestHinge_hinge_strength=1.0 --ChestHinge_pin_height=2.0 --ChestHinge_play=0.1 --x=100.0 --y=100.0 --h=100.0 --outside=0 --outside=1 --lidheight=20.0 --thickness=3.12 --format=svg --tabs=0.0 --debug=0 --labels=0 --labels=1 --reference=100 --burn=0.1
Url: http://www.festi.info/IntegratedHingeBox?FingerJoint_angle=90.0&amp;FingerJoint_style=rectangular&amp;FingerJoint_surroundingspaces=2.0&amp;FingerJoint_edge_width=1.0&amp;FingerJoint_finger=2.0&amp;FingerJoint_play=0.0&amp;FingerJoint_space=2.0&amp;FingerJoint_width=1.0&amp;ChestHinge_hinge_strength=1.0&amp;ChestHinge_pin_height=2.0&amp;ChestHinge_play=0.1&amp;x=100.0&amp;y=100.0&amp;h=100.0&amp;outside=0&amp;outside=1&amp;lidheight=20.0&amp;thickness=3.12&amp;format=svg&amp;tabs=0.0&amp;debug=0&amp;labels=0&amp;labels=1&amp;reference=100&amp;burn=0.1&amp;render=1
SettingsUrl: http://www.festi.info/IntegratedHingeBox?FingerJoint_angle=90.0&amp;FingerJoint_style=rectangular&amp;FingerJoint_surroundingspaces=2.0&amp;FingerJoint_edge_width=1.0&amp;FingerJoint_finger=2.0&amp;FingerJoint_play=0.0&amp;FingerJoint_space=2.0&amp;FingerJoint_width=1.0&amp;ChestHinge_hinge_strength=1.0&amp;ChestHinge_pin_height=2.0&amp;ChestHinge_play=0.1&amp;x=100.0&amp;y=100.0&amp;h=100.0&amp;outside=0&amp;outside=1&amp;lidheight=20.0&amp;thickness=3.12&amp;format=svg&amp;tabs=0.0&amp;debug=0&amp;labels=0&amp;labels=1&amp;reference=100&amp;burn=0.1
</dc:description>
</cc:Work></rdf:RDF></metadata>
<g id="p-0" style="fill:none;stroke-linecap:round;stroke-linejoin:round;">
  <path d="M 19.278 717.488 H 119.278 V 707.488 H 19.278 V 717.488 Z" stroke="rgb(0,0,0)" stroke-width="0.20" />
  <text alignment-baseline="hanging" font-size="10px" style="font-family: sans-serif ; font-weight: normal; font-style: normal; fill: rgb(0,0,0)" text-anchor="middle" transform="matrix( 1.000 0.000 0.000 1.000 69.278 707.488 )">100mm</text><text alignment-baseline="hanging" font-size="4px" style="font-family: sans-serif ; font-weight: normal; font-style: normal; fill: rgb(255,0,0)" text-anchor="middle" transform="matrix( 1.000 0.000 0.000 1.000 24.278 710.488 )" />
</g>
<g id="p-1" style="fill:none;stroke-linecap:round;stroke-linejoin:round;">
  <text alignment-baseline="hanging" font-size="4px" style="font-family: sans-serif ; font-weight: normal; font-style: normal; fill: rgb(255,0,0)" text-anchor="middle" transform="matrix( 1.000 0.000 0.000 1.000 69.278 655.288 )" /><path d="M 22.398 705.728 H 28.718 C 28.773 705.728 28.818 705.683 28.818 705.628 V 702.608 C 28.818 702.508 28.718 702.608 28.818 702.608 H 34.858 C 34.958 702.608 34.858 702.508 34.858 702.608 V 705.628 C 34.858 705.683 34.903 705.728 34.958 705.728 H 41.198 C 41.253 705.728 41.298 705.683 41.298 705.628 V 702.608 C 41.298 702.508 41.198 702.608 41.298 702.608 H 47.338 C 47.438 702.608 47.338 702.508 47.338 702.608 V 705.628 C 47.338 705.683 47.383 705.728 47.438 705.728 H 53.678 C 53.733 705.728 53.778 705.683 53.778 705.628 V 702.608 C 53.778 702.508 53.678 702.608 53.778 702.608 H 59.818 C 59.918 702.608 59.818 702.508 59.818 702.608 V 705.628 C 59.818 705.683 59.863 705.728 59.918 705.728 H 66.158 C 66.213 705.728 66.258 705.683 66.258 705.628 V 702.608 C 66.258 702.508 66.158 702.608 66.258 702.608 H 72.298 C 72.398 702.608 72.298 702.508 72.298 702.608 V 705.628 C 72.298 705.683 72.343 705.728 72.398 705.728 H 78.638 C 78.693 705.728 78.738 705.683 78.738 705.628 V 702.608 C 78.738 702.508 78.638 702.608 78.738 702.608 H 84.778 C 84.878 702.608 84.778 702.508 84.778 702.608 V 705.628 C 84.778 705.683 84.823 705.728 84.878 705.728 H 91.118 C 91.173 705.728 91.218 705.683 91.218 705.628 V 702.608 C 91.218 702.508 91.118 702.608 91.218 702.608 H 97.258 C 97.358 702.608 97.258 702.508 97.258 702.608 V 705.628 C 97.258 705.683 97.303 705.728 97.358 705.728 H 103.598 C 103.653 705.728 103.698 705.683 103.698 705.628 V 702.608 C 103.698 702.508 103.598 702.608 103.698 702.608 H 109.738 C 109.838 702.608 109.738 702.508 109.738 702.608 V 705.628 C 109.738 705.683 109.783 705.728 109.838 705.728 H 116.158 C 116.213 705.728 116.258 705.683 116.258 705.628 V 702.508 V 696.288 C 116.258 696.188 116.158 696.288 116.258 696.288 H 119.278 C 119.333 696.288 119.378 696.243 119.378 696.188 V 689.948 C 119.378 689.893 119.333 689.848 119.278 689.848 H 116.258 C 116.158 689.848 116.258 689.948 116.258 689.848 V 683.808 C 116.258 683.708 116.158 683.808 116.258 683.808 H 119.278 C 119.333 683.808 119.378 683.763 119.378 683.708 V 677.468 C 119.378 677.413 119.333 677.368 119.278 677.368 H 116.258 C 116.158 677.368 116.258 677.468 116.258 677.368 V 671.328 C 116.258 671.228 116.158 671.328 116.258 671.328 H 119.278 C 119.333 671.328 119.378 671.283 119.378 671.228 V 664.988 C 119.378 664.933 119.333 664.888 119.278 664.888 H 116.258 C 116.158 664.888 116.258 664.988 116.258 664.888 V 658.848 C 116.258 658.748 116.158 658.848 116.258 658.848 H 119.278 C 119.333 658.848 119.378 658.803 119.378 658.748 V 652.508 C 119.378 652.453 119.333 652.408 119.278 652.408 H 116.258 C 116.158 652.408 116.258 652.508 116.258 652.408 V 646.368 C 116.258 646.268 116.158 646.368 116.258 646.368 H 119.278 C 119.333 646.368 119.378 646.323 119.378 646.268 V 640.028 C 119.378 639.973 119.333 639.928 119.278 639.928 H 116.258 C 116.158 639.928 116.258 640.028 116.258 639.928 V 633.888 C 116.258 633.788 116.158 633.888 116.258 633.888 H 119.278 C 119.333 633.888 119.378 633.843 119.378 633.788 V 627.548 C 119.378 627.493 119.333 627.448 119.278 627.448 H 116.258 C 116.158 627.448 116.258 627.548 116.258 627.448 V 621.408 C 116.258 621.308 116.158 621.408 116.258 621.408 H 119.278 C 119.333 621.408 119.378 621.363 119.378 621.308 V 615.068 C 119.378 615.013 119.333 614.968 119.278 614.968 H 116.258 C 116.158 614.968 116.258 615.068 116.258 614.968 V 608.748 C 116.258 608.693 116.213 608.648 116.158 608.648 H 28.638 C 28.693 608.648 28.738 608.693 28.738 608.748 C 28.738 606.877 28.183 605.048 27.144 603.492 C 26.104 601.937 24.627 600.724 22.898 600.008 C 21.170 599.292 19.268 599.105 17.433 599.470 C 15.598 599.835 13.912 600.736 12.589 602.059 C 11.266 603.382 10.365 605.067 10.000 606.902 C 9.635 608.738 9.822 610.640 10.538 612.368 C 11.254 614.097 12.467 615.574 14.023 616.614 C 15.578 617.653 17.407 618.208 19.278 618.208 H 22.398 C 22.381 618.208 22.363 618.203 22.348 618.195 C 22.333 618.186 22.320 618.173 22.312 618.158 C 22.303 618.143 22.298 618.126 22.298 618.108 C 22.298 618.090 22.303 618.073 22.312 618.058 C 22.320 618.043 22.333 618.030 22.348 618.021 C 22.363 618.013 22.381 618.008 22.398 618.008 C 22.343 618.008 22.298 618.053 22.298 618.108 V 625.888 C 22.298 625.988 22.398 625.888 22.298 625.888 H 19.278 C 19.223 625.888 19.178 625.933 19.178 625.988 V 632.228 C 19.178 632.283 19.223 632.328 19.278 632.328 H 22.298 C 22.398 632.328 22.298 632.228 22.298 632.328 V 638.368 C 22.298 638.468 22.398 638.368 22.298 638.368 H 19.278 C 19.223 638.368 19.178 638.413 19.178 638.468 V 644.708 C 19.178 644.763 19.223 644.808 19.278 644.808 H 22.298 C 22.398 644.808 22.298 644.708 22.298 644.808 V 650.848 C 22.298 650.948 22.398 650.848 22.298 650.848 H 19.278 C 19.223 650.848 19.178 650.893 19.178 650.948 V 657.188 C 19.178 657.243 19.223 657.288 19.278 657.288 H 22.298 C 22.398 657.288 22.298 657.188 22.298 657.288 V 663.328 C 22.298 663.428 22.398 663.328 22.298 663.328 H 19.278 C 19.223 663.328 19.178 663.373 19.178 663.428 V 669.668 C 19.178 669.723 19.223 669.768 19.278 669.768 H 22.298 C 22.398 669.768 22.298 669.668 22.298 669.768 V 675.808 C 22.298 675.908 22.398 675.808 22.298 675.808 H 19.278 C 19.223 675.808 19.178 675.853 19.178 675.908 V 682.148 C 19.178 682.203 19.223 682.248 19.278 682.248 H 22.298 C 22.398 682.248 22.298 682.148 22.298 682.248 V 688.288 C 22.298 688.388 22.398 688.288 22.298 688.288 H 19.278 C 19.223 688.288 19.178 688.333 19.178 688.388 V 694.628 C 19.178 694.683 19.223 694.728 19.278 694.728 H 22.298 C 22.398 694.728 22.298 694.628 22.298 694.728 V 702.508 V 705.628 C 22.298 705.683 22.343 705.728 22.398 705.728" stroke="rgb(0,0,0)" stroke-width="0.20" />
  <path d="M 13.138 608.648 C 13.138 607.471 13.477 606.319 14.113 605.328 C 14.749 604.338 15.657 603.552 16.728 603.063 C 17.798 602.574 18.987 602.403 20.152 602.570 C 21.317 602.738 22.410 603.237 23.299 604.008 C 24.189 604.779 24.838 605.789 25.170 606.918 C 25.501 608.048 25.501 609.248 25.170 610.378 C 24.838 611.507 24.189 612.517 23.299 613.288 C 22.410 614.059 21.317 614.558 20.152 614.726 C 18.987 614.893 17.798 614.722 16.728 614.233 C 15.657 613.744 14.749 612.958 14.113 611.968 C 13.477 610.977 13.138 609.825 13.138 608.648 Z" stroke="rgb(0,0,255)" stroke-width="0.20" />
  <path d="M 20.838 604.078 H 22.298 C 22.398 604.078 22.298 603.978 22.298 604.078 V 608.548 C 22.298 608.648 22.398 608.548 22.298 608.548 H 19.378 C 19.278 608.548 19.378 608.648 19.378 608.548 V 604.078 C 19.378 603.978 19.278 604.078 19.378 604.078 H 20.838 Z" stroke="rgb(0,0,255)" stroke-width="0.20" />
</g>
<g id="p-2" style="fill:none;stroke-linecap:round;stroke-linejoin:round;">
  <text alignment-baseline="hanging" font-size="4px" style="font-family: sans-serif ; font-weight: normal; font-style: normal; fill: rgb(255,0,0)" text-anchor="middle" transform="matrix( 1.000 0.000 0.000 1.000 69.278 593.528 )" /><path d="M 22.398 597.416 C 22.381 597.416 22.363 597.411 22.348 597.403 C 22.333 597.394 22.320 597.381 22.312 597.366 C 22.303 597.351 22.298 597.334 22.298 597.316 C 22.298 597.298 22.303 597.281 22.312 597.266 C 22.320 597.251 22.333 597.238 22.348 597.229 C 22.363 597.221 22.381 597.216 22.398 597.216 H 19.278 C 19.296 597.216 19.313 597.221 19.328 597.229 C 19.343 597.238 19.356 597.251 19.365 597.266 C 19.374 597.281 19.378 597.298 19.378 597.316 C 19.378 597.334 19.374 597.351 19.365 597.366 C 19.356 597.381 19.343 597.394 19.328 597.403 C 19.313 597.411 19.296 597.416 19.278 597.416 C 20.958 597.416 22.609 597.858 24.064 598.698 C 25.519 599.539 26.728 600.747 27.568 602.202 C 28.408 603.657 28.850 605.308 28.850 606.988 C 28.850 607.043 28.895 607.088 28.950 607.088 H 116.158 C 116.213 607.088 116.258 607.043 116.258 606.988 V 600.208 C 116.258 600.108 116.158 600.208 116.258 600.208 H 119.278 C 119.333 600.208 119.378 600.163 119.378 600.108 V 593.868 C 119.378 593.813 119.333 593.768 119.278 593.768 H 116.258 C 116.158 593.768 116.258 593.868 116.258 593.768 V 586.988 V 583.868 C 116.258 583.813 116.213 583.768 116.158 583.768 H 109.838 C 109.783 583.768 109.738 583.813 109.738 583.868 V 586.888 C 109.738 586.988 109.838 586.888 109.738 586.888 H 103.698 C 103.598 586.888 103.698 586.988 103.698 586.888 V 583.868 C 103.698 583.813 103.653 583.768 103.598 583.768 H 97.358 C 97.303 583.768 97.258 583.813 97.258 583.868 V 586.888 C 97.258 586.988 97.358 586.888 97.258 586.888 H 91.218 C 91.118 586.888 91.218 586.988 91.218 586.888 V 583.868 C 91.218 583.813 91.173 583.768 91.118 583.768 H 84.878 C 84.823 583.768 84.778 583.813 84.778 583.868 V 586.888 C 84.778 586.988 84.878 586.888 84.778 586.888 H 78.738 C 78.638 586.888 78.738 586.988 78.738 586.888 V 583.868 C 78.738 583.813 78.693 583.768 78.638 583.768 H 72.398 C 72.343 583.768 72.298 583.813 72.298 583.868 V 586.888 C 72.298 586.988 72.398 586.888 72.298 586.888 H 66.258 C 66.158 586.888 66.258 586.988 66.258 586.888 V 583.868 C 66.258 583.813 66.213 583.768 66.158 583.768 H 59.918 C 59.863 583.768 59.818 583.813 59.818 583.868 V 586.888 C 59.818 586.988 59.918 586.888 59.818 586.888 H 53.778 C 53.678 586.888 53.778 586.988 53.778 586.888 V 583.868 C 53.778 583.813 53.733 583.768 53.678 583.768 H 47.438 C 47.383 583.768 47.338 583.813 47.338 583.868 V 586.888 C 47.338 586.988 47.438 586.888 47.338 586.888 H 41.298 C 41.198 586.888 41.298 586.988 41.298 586.888 V 583.868 C 41.298 583.813 41.253 583.768 41.198 583.768 H 34.958 C 34.903 583.768 34.858 583.813 34.858 583.868 V 586.888 C 34.858 586.988 34.958 586.888 34.858 586.888 H 28.818 C 28.718 586.888 28.818 586.988 28.818 586.888 V 583.868 C 28.818 583.813 28.773 583.768 28.718 583.768 H 22.398 C 22.343 583.768 22.298 583.813 22.298 583.868 V 586.988 V 592.152 V 597.316 C 22.298 597.371 22.343 597.416 22.398 597.416" stroke="rgb(0,0,0)" stroke-width="0.20" />
</g>
<g id="p-3" style="fill:none;stroke-linecap:round;stroke-linejoin:round;">
  <text alignment-baseline="hanging" font-size="4px" style="font-family: sans-serif ; font-weight: normal; font-style: normal; fill: rgb(255,0,0)" text-anchor="middle" transform="matrix( 1.000 0.000 0.000 1.000 69.278 531.768 )" /><path d="M 22.398 582.208 H 28.718 C 28.773 582.208 28.818 582.163 28.818 582.108 V 579.088 C 28.818 578.988 28.718 579.088 28.818 579.088 H 34.858 C 34.958 579.088 34.858 578.988 34.858 579.088 V 582.108 C 34.858 582.163 34.903 582.208 34.958 582.208 H 41.198 C 41.253 582.208 41.298 582.163 41.298 582.108 V 579.088 C 41.298 578.988 41.198 579.088 41.298 579.088 H 47.338 C 47.438 579.088 47.338 578.988 47.338 579.088 V 582.108 C 47.338 582.163 47.383 582.208 47.438 582.208 H 53.678 C 53.733 582.208 53.778 582.163 53.778 582.108 V 579.088 C 53.778 578.988 53.678 579.088 53.778 579.088 H 59.818 C 59.918 579.088 59.818 578.988 59.818 579.088 V 582.108 C 59.818 582.163 59.863 582.208 59.918 582.208 H 66.158 C 66.213 582.208 66.258 582.163 66.258 582.108 V 579.088 C 66.258 578.988 66.158 579.088 66.258 579.088 H 72.298 C 72.398 579.088 72.298 578.988 72.298 579.088 V 582.108 C 72.298 582.163 72.343 582.208 72.398 582.208 H 78.638 C 78.693 582.208 78.738 582.163 78.738 582.108 V 579.088 C 78.738 578.988 78.638 579.088 78.738 579.088 H 84.778 C 84.878 579.088 84.778 578.988 84.778 579.088 V 582.108 C 84.778 582.163 84.823 582.208 84.878 582.208 H 91.118 C 91.173 582.208 91.218 582.163 91.218 582.108 V 579.088 C 91.218 578.988 91.118 579.088 91.218 579.088 H 97.258 C 97.358 579.088 97.258 578.988 97.258 579.088 V 582.108 C 97.258 582.163 97.303 582.208 97.358 582.208 H 103.598 C 103.653 582.208 103.698 582.163 103.698 582.108 V 579.088 C 103.698 578.988 103.598 579.088 103.698 579.088 H 109.738 C 109.838 579.088 109.738 578.988 109.738 579.088 V 582.108 C 109.738 582.163 109.783 582.208 109.838 582.208 H 116.158 C 116.213 582.208 116.258 582.163 116.258 582.108 V 578.988 V 571.208 C 116.258 571.108 116.158 571.208 116.258 571.208 H 119.278 C 119.333 571.208 119.378 571.163 119.378 571.108 V 564.868 C 119.378 564.813 119.333 564.768 119.278 564.768 H 116.258 C 116.158 564.768 116.258 564.868 116.258 564.768 V 558.728 C 116.258 558.628 116.158 558.728 116.258 558.728 H 119.278 C 119.333 558.728 119.378 558.683 119.378 558.628 V 552.388 C 119.378 552.333 119.333 552.288 119.278 552.288 H 116.258 C 116.158 552.288 116.258 552.388 116.258 552.288 V 546.248 C 116.258 546.148 116.158 546.248 116.258 546.248 H 119.278 C 119.333 546.248 119.378 546.203 119.378 546.148 V 539.908 C 119.378 539.853 119.333 539.808 119.278 539.808 H 116.258 C 116.158 539.808 116.258 539.908 116.258 539.808 V 533.768 C 116.258 533.668 116.158 533.768 116.258 533.768 H 119.278 C 119.333 533.768 119.378 533.723 119.378 533.668 V 527.428 C 119.378 527.373 119.333 527.328 119.278 527.328 H 116.258 C 116.158 527.328 116.258 527.428 116.258 527.328 V 521.288 C 116.258 521.188 116.158 521.288 116.258 521.288 H 119.278 C 119.333 521.288 119.378 521.243 119.378 521.188 V 514.948 C 119.378 514.893 119.333 514.848 119.278 514.848 H 116.258 C 116.158 514.848 116.258 514.948 116.258 514.848 V 508.808 C 116.258 508.708 116.158 508.808 116.258 508.808 H 119.278 C 119.333 508.808 119.378 508.763 119.378 508.708 V 502.468 C 119.378 502.413 119.333 502.368 119.278 502.368 H 116.258 C 116.158 502.368 116.258 502.468 116.258 502.368 V 494.588 C 116.258 494.533 116.213 494.488 116.158 494.488 C 116.176 494.488 116.193 494.493 116.208 494.501 C 116.223 494.510 116.236 494.523 116.245 494.538 C 116.254 494.553 116.258 494.570 116.258 494.588 C 116.258 494.606 116.254 494.623 116.245 494.638 C 116.236 494.653 116.223 494.666 116.208 494.675 C 116.193 494.683 116.176 494.688 116.158 494.688 H 119.278 C 121.149 494.688 122.978 494.133 124.534 493.094 C 126.090 492.054 127.302 490.577 128.018 488.848 C 128.734 487.120 128.921 485.218 128.556 483.382 C 128.191 481.547 127.290 479.862 125.967 478.539 C 124.644 477.216 122.959 476.315 121.124 475.950 C 119.289 475.585 117.387 475.772 115.658 476.488 C 113.929 477.204 112.452 478.417 111.413 479.972 C 110.373 481.528 109.818 483.357 109.818 485.228 C 109.818 485.173 109.863 485.128 109.918 485.128 H 22.398 C 22.343 485.128 22.298 485.173 22.298 485.228 V 491.448 C 22.298 491.548 22.398 491.448 22.298 491.448 H 19.278 C 19.223 491.448 19.178 491.493 19.178 491.548 V 497.788 C 19.178 497.843 19.223 497.888 19.278 497.888 H 22.298 C 22.398 497.888 22.298 497.788 22.298 497.888 V 503.928 C 22.298 504.028 22.398 503.928 22.298 503.928 H 19.278 C 19.223 503.928 19.178 503.973 19.178 504.028 V 510.268 C 19.178 510.323 19.223 510.368 19.278 510.368 H 22.298 C 22.398 510.368 22.298 510.268 22.298 510.368 V 516.408 C 22.298 516.508 22.398 516.408 22.298 516.408 H 19.278 C 19.223 516.408 19.178 516.453 19.178 516.508 V 522.748 C 19.178 522.803 19.223 522.848 19.278 522.848 H 22.298 C 22.398 522.848 22.298 522.748 22.298 522.848 V 528.888 C 22.298 528.988 22.398 528.888 22.298 528.888 H 19.278 C 19.223 528.888 19.178 528.933 19.178 528.988 V 535.228 C 19.178 535.283 19.223 535.328 19.278 535.328 H 22.298 C 22.398 535.328 22.298 535.228 22.298 535.328 V 541.368 C 22.298 541.468 22.398 541.368 22.298 541.368 H 19.278 C 19.223 541.368 19.178 541.413 19.178 541.468 V 547.708 C 19.178 547.763 19.223 547.808 19.278 547.808 H 22.298 C 22.398 547.808 22.298 547.708 22.298 547.808 V 553.848 C 22.298 553.948 22.398 553.848 22.298 553.848 H 19.278 C 19.223 553.848 19.178 553.893 19.178 553.948 V 560.188 C 19.178 560.243 19.223 560.288 19.278 560.288 H 22.298 C 22.398 560.288 22.298 560.188 22.298 560.288 V 566.328 C 22.298 566.428 22.398 566.328 22.298 566.328 H 19.278 C 19.223 566.328 19.178 566.373 19.178 566.428 V 572.668 C 19.178 572.723 19.223 572.768 19.278 572.768 H 22.298 C 22.398 572.768 22.298 572.668 22.298 572.768 V 578.988 V 582.108 C 22.298 582.163 22.343 582.208 22.398 582.208" stroke="rgb(0,0,0)" stroke-width="0.20" />
  <path d="M 113.138 485.128 C 113.138 483.951 113.477 482.799 114.113 481.808 C 114.749 480.818 115.657 480.032 116.728 479.543 C 117.798 479.054 118.987 478.883 120.152 479.050 C 121.317 479.218 122.410 479.717 123.299 480.488 C 124.189 481.259 124.838 482.269 125.170 483.398 C 125.501 484.528 125.501 485.728 125.170 486.858 C 124.838 487.987 124.189 488.997 123.299 489.768 C 122.410 490.539 121.317 491.038 120.152 491.206 C 118.987 491.373 117.798 491.202 116.728 490.713 C 115.657 490.224 114.749 489.438 114.113 488.448 C 113.477 487.457 113.138 486.305 113.138 485.128 Z" stroke="rgb(0,0,255)" stroke-width="0.20" />
  <path d="M 117.718 480.558 H 119.178 C 119.278 480.558 119.178 480.458 119.178 480.558 V 485.028 C 119.178 485.128 119.278 485.028 119.178 485.028 H 116.258 C 116.158 485.028 116.258 485.128 116.258 485.028 V 480.558 C 116.258 480.458 116.158 480.558 116.258 480.558 H 117.718 Z" stroke="rgb(0,0,255)" stroke-width="0.20" />
</g>
<g id="p-4" style="fill:none;stroke-linecap:round;stroke-linejoin:round;">
  <text alignment-baseline="hanging" font-size="4px" style="font-family: sans-serif ; font-weight: normal; font-style: normal; fill: rgb(255,0,0)" text-anchor="middle" transform="matrix( 1.000 0.000 0.000 1.000 69.278 470.008 )" /><path d="M 22.398 483.568 H 109.606 C 109.661 483.568 109.706 483.523 109.706 483.468 C 109.706 481.788 110.149 480.137 110.989 478.682 C 111.829 477.227 113.037 476.019 114.492 475.178 C 115.947 474.338 117.598 473.896 119.278 473.896 C 119.261 473.896 119.243 473.891 119.228 473.883 C 119.213 473.874 119.200 473.861 119.192 473.846 C 119.183 473.831 119.178 473.814 119.178 473.796 C 119.178 473.778 119.183 473.761 119.192 473.746 C 119.200 473.731 119.213 473.718 119.228 473.709 C 119.243 473.701 119.261 473.696 119.278 473.696 H 116.158 C 116.176 473.696 116.193 473.701 116.208 473.709 C 116.223 473.718 116.236 473.731 116.245 473.746 C 116.254 473.761 116.258 473.778 116.258 473.796 C 116.258 473.814 116.254 473.831 116.245 473.846 C 116.236 473.861 116.223 473.874 116.208 473.883 C 116.193 473.891 116.176 473.896 116.158 473.896 C 116.213 473.896 116.258 473.851 116.258 473.796 V 468.632 V 463.468 V 460.348 C 116.258 460.293 116.213 460.248 116.158 460.248 H 109.838 C 109.783 460.248 109.738 460.293 109.738 460.348 V 463.368 C 109.738 463.468 109.838 463.368 109.738 463.368 H 103.698 C 103.598 463.368 103.698 463.468 103.698 463.368 V 460.348 C 103.698 460.293 103.653 460.248 103.598 460.248 H 97.358 C 97.303 460.248 97.258 460.293 97.258 460.348 V 463.368 C 97.258 463.468 97.358 463.368 97.258 463.368 H 91.218 C 91.118 463.368 91.218 463.468 91.218 463.368 V 460.348 C 91.218 460.293 91.173 460.248 91.118 460.248 H 84.878 C 84.823 460.248 84.778 460.293 84.778 460.348 V 463.368 C 84.778 463.468 84.878 463.368 84.778 463.368 H 78.738 C 78.638 463.368 78.738 463.468 78.738 463.368 V 460.348 C 78.738 460.293 78.693 460.248 78.638 460.248 H 72.398 C 72.343 460.248 72.298 460.293 72.298 460.348 V 463.368 C 72.298 463.468 72.398 463.368 72.298 463.368 H 66.258 C 66.158 463.368 66.258 463.468 66.258 463.368 V 460.348 C 66.258 460.293 66.213 460.248 66.158 460.248 H 59.918 C 59.863 460.248 59.818 460.293 59.818 460.348 V 463.368 C 59.818 463.468 59.918 463.368 59.818 463.368 H 53.778 C 53.678 463.368 53.778 463.468 53.778 463.368 V 460.348 C 53.778 460.293 53.733 460.248 53.678 460.248 H 47.438 C 47.383 460.248 47.338 460.293 47.338 460.348 V 463.368 C 47.338 463.468 47.438 463.368 47.338 463.368 H 41.298 C 41.198 463.368 41.298 463.468 41.298 463.368 V 460.348 C 41.298 460.293 41.253 460.248 41.198 460.248 H 34.958 C 34.903 460.248 34.858 460.293 34.858 460.348 V 463.368 C 34.858 463.468 34.958 463.368 34.858 463.368 H 28.818 C 28.718 463.368 28.818 463.468 28.818 463.368 V 460.348 C 28.818 460.293 28.773 460.248 28.718 460.248 H 22.398 C 22.343 460.248 22.298 460.293 22.298 460.348 V 463.468 V 470.248 C 22.298 470.348 22.398 470.248 22.298 470.248 H 19.278 C 19.223 470.248 19.178 470.293 19.178 470.348 V 476.588 C 19.178 476.643 19.223 476.688 19.278 476.688 H 22.298 C 22.398 476.688 22.298 476.588 22.298 476.688 V 483.468 C 22.298 483.523 22.343 483.568 22.398 483.568" stroke="rgb(0,0,0)" stroke-width="0.20" />
</g>
<g id="p-5" style="fill:none;stroke-linecap:round;stroke-linejoin:round;">
  <text alignment-baseline="hanging" font-size="4px" style="font-family: sans-serif ; font-weight: normal; font-style: normal; fill: rgb(255,0,0)" text-anchor="middle" transform="matrix( 1.000 0.000 0.000 1.000 69.278 408.248 )" /><path d="M 22.398 458.688 H 28.718 C 28.773 458.688 28.818 458.643 28.818 458.588 V 455.568 C 28.818 455.468 28.718 455.568 28.818 455.568 H 34.858 C 34.958 455.568 34.858 455.468 34.858 455.568 V 458.588 C 34.858 458.643 34.903 458.688 34.958 458.688 H 41.198 C 41.253 458.688 41.298 458.643 41.298 458.588 V 455.568 C 41.298 455.468 41.198 455.568 41.298 455.568 H 47.338 C 47.438 455.568 47.338 455.468 47.338 455.568 V 458.588 C 47.338 458.643 47.383 458.688 47.438 458.688 H 53.678 C 53.733 458.688 53.778 458.643 53.778 458.588 V 455.568 C 53.778 455.468 53.678 455.568 53.778 455.568 H 59.818 C 59.918 455.568 59.818 455.468 59.818 455.568 V 458.588 C 59.818 458.643 59.863 458.688 59.918 458.688 H 66.158 C 66.213 458.688 66.258 458.643 66.258 458.588 V 455.568 C 66.258 455.468 66.158 455.568 66.258 455.568 H 72.298 C 72.398 455.568 72.298 455.468 72.298 455.568 V 458.588 C 72.298 458.643 72.343 458.688 72.398 458.688 H 78.638 C 78.693 458.688 78.738 458.643 78.738 458.588 V 455.568 C 78.738 455.468 78.638 455.568 78.738 455.568 H 84.778 C 84.878 455.568 84.778 455.468 84.778 455.568 V 458.588 C 84.778 458.643 84.823 458.688 84.878 458.688 H 91.118 C 91.173 458.688 91.218 458.643 91.218 458.588 V 455.568 C 91.218 455.468 91.118 455.568 91.218 455.568 H 97.258 C 97.358 455.568 97.258 455.468 97.258 455.568 V 458.588 C 97.258 458.643 97.303 458.688 97.358 458.688 H 103.598 C 103.653 458.688 103.698 458.643 103.698 458.588 V 455.568 C 103.698 455.468 103.598 455.568 103.698 455.568 H 109.738 C 109.838 455.568 109.738 455.468 109.738 455.568 V 458.588 C 109.738 458.643 109.783 458.688 109.838 458.688 H 116.158 H 119.278 C 119.333 458.688 119.378 458.643 119.378 458.588 V 455.468 V 449.148 C 119.378 449.093 119.333 449.048 119.278 449.048 H 116.258 C 116.158 449.048 116.258 449.148 116.258 449.048 V 443.008 C 116.258 442.908 116.158 443.008 116.258 443.008 H 119.278 C 119.333 443.008 119.378 442.963 119.378 442.908 V 436.668 C 119.378 436.613 119.333 436.568 119.278 436.568 H 116.258 C 116.158 436.568 116.258 436.668 116.258 436.568 V 430.528 C 116.258 430.428 116.158 430.528 116.258 430.528 H 119.278 C 119.333 430.528 119.378 430.483 119.378 430.428 V 424.188 C 119.378 424.133 119.333 424.088 119.278 424.088 H 116.258 C 116.158 424.088 116.258 424.188 116.258 424.088 V 418.048 C 116.258 417.948 116.158 418.048 116.258 418.048 H 119.278 C 119.333 418.048 119.378 418.003 119.378 417.948 V 411.708 C 119.378 411.653 119.333 411.608 119.278 411.608 H 116.258 C 116.158 411.608 116.258 411.708 116.258 411.608 V 405.568 C 116.258 405.468 116.158 405.568 116.258 405.568 H 119.278 C 119.333 405.568 119.378 405.523 119.378 405.468 V 399.228 C 119.378 399.173 119.333 399.128 119.278 399.128 H 116.258 C 116.158 399.128 116.258 399.228 116.258 399.128 V 393.088 C 116.258 392.988 116.158 393.088 116.258 393.088 H 119.278 C 119.333 393.088 119.378 393.043 119.378 392.988 V 386.748 C 119.378 386.693 119.333 386.648 119.278 386.648 H 116.258 C 116.158 386.648 116.258 386.748 116.258 386.648 V 380.608 C 116.258 380.508 116.158 380.608 116.258 380.608 H 119.278 C 119.333 380.608 119.378 380.563 119.378 380.508 V 374.268 C 119.378 374.213 119.333 374.168 119.278 374.168 H 116.258 C 116.158 374.168 116.258 374.268 116.258 374.168 V 368.128 C 116.258 368.028 116.158 368.128 116.258 368.128 H 119.278 C 119.333 368.128 119.378 368.083 119.378 368.028 V 361.708 C 119.378 361.653 119.333 361.608 119.278 361.608 H 116.158 H 22.398 H 19.278 C 19.223 361.608 19.178 361.653 19.178 361.708 V 368.028 C 19.178 368.083 19.223 368.128 19.278 368.128 H 22.298 C 22.398 368.128 22.298 368.028 22.298 368.128 V 374.168 C 22.298 374.268 22.398 374.168 22.298 374.168 H 19.278 C 19.223 374.168 19.178 374.213 19.178 374.268 V 380.508 C 19.178 380.563 19.223 380.608 19.278 380.608 H 22.298 C 22.398 380.608 22.298 380.508 22.298 380.608 V 386.648 C 22.298 386.748 22.398 386.648 22.298 386.648 H 19.278 C 19.223 386.648 19.178 386.693 19.178 386.748 V 392.988 C 19.178 393.043 19.223 393.088 19.278 393.088 H 22.298 C 22.398 393.088 22.298 392.988 22.298 393.088 V 399.128 C 22.298 399.228 22.398 399.128 22.298 399.128 H 19.278 C 19.223 399.128 19.178 399.173 19.178 399.228 V 405.468 C 19.178 405.523 19.223 405.568 19.278 405.568 H 22.298 C 22.398 405.568 22.298 405.468 22.298 405.568 V 411.608 C 22.298 411.708 22.398 411.608 22.298 411.608 H 19.278 C 19.223 411.608 19.178 411.653 19.178 411.708 V 417.948 C 19.178 418.003 19.223 418.048 19.278 418.048 H 22.298 C 22.398 418.048 22.298 417.948 22.298 418.048 V 424.088 C 22.298 424.188 22.398 424.088 22.298 424.088 H 19.278 C 19.223 424.088 19.178 424.133 19.178 424.188 V 430.428 C 19.178 430.483 19.223 430.528 19.278 430.528 H 22.298 C 22.398 430.528 22.298 430.428 22.298 430.528 V 436.568 C 22.298 436.668 22.398 436.568 22.298 436.568 H 19.278 C 19.223 436.568 19.178 436.613 19.178 436.668 V 442.908 C 19.178 442.963 19.223 443.008 19.278 443.008 H 22.298 C 22.398 443.008 22.298 442.908 22.298 443.008 V 449.048 C 22.298 449.148 22.398 449.048 22.298 449.048 H 19.278 C 19.223 449.048 19.178 449.093 19.178 449.148 V 455.468 V 458.588 C 19.178 458.643 19.223 458.688 19.278 458.688 H 22.398" stroke="rgb(0,0,0)" stroke-width="0.20" />
</g>
<g id="p-6" style="fill:none;stroke-linecap:round;stroke-linejoin:round;">
  <text alignment-baseline="hanging" font-size="4px" style="font-family: sans-serif ; font-weight: normal; font-style: normal; fill: rgb(255,0,0)" text-anchor="middle" transform="matrix( 1.000 0.000 0.000 1.000 69.278 309.608 )" /><path d="M 22.398 360.048 H 28.718 C 28.773 360.048 28.818 360.003 28.818 359.948 V 356.928 C 28.818 356.828 28.718 356.928 28.818 356.928 H 34.858 C 34.958 356.928 34.858 356.828 34.858 356.928 V 359.948 C 34.858 360.003 34.903 360.048 34.958 360.048 H 41.198 C 41.253 360.048 41.298 360.003 41.298 359.948 V 356.928 C 41.298 356.828 41.198 356.928 41.298 356.928 H 47.338 C 47.438 356.928 47.338 356.828 47.338 356.928 V 359.948 C 47.338 360.003 47.383 360.048 47.438 360.048 H 53.678 C 53.733 360.048 53.778 360.003 53.778 359.948 V 356.928 C 53.778 356.828 53.678 356.928 53.778 356.928 H 59.818 C 59.918 356.928 59.818 356.828 59.818 356.928 V 359.948 C 59.818 360.003 59.863 360.048 59.918 360.048 H 66.158 C 66.213 360.048 66.258 360.003 66.258 359.948 V 356.928 C 66.258 356.828 66.158 356.928 66.258 356.928 H 72.298 C 72.398 356.928 72.298 356.828 72.298 356.928 V 359.948 C 72.298 360.003 72.343 360.048 72.398 360.048 H 78.638 C 78.693 360.048 78.738 360.003 78.738 359.948 V 356.928 C 78.738 356.828 78.638 356.928 78.738 356.928 H 84.778 C 84.878 356.928 84.778 356.828 84.778 356.928 V 359.948 C 84.778 360.003 84.823 360.048 84.878 360.048 H 91.118 C 91.173 360.048 91.218 360.003 91.218 359.948 V 356.928 C 91.218 356.828 91.118 356.928 91.218 356.928 H 97.258 C 97.358 356.928 97.258 356.828 97.258 356.928 V 359.948 C 97.258 360.003 97.303 360.048 97.358 360.048 H 103.598 C 103.653 360.048 103.698 360.003 103.698 359.948 V 356.928 C 103.698 356.828 103.598 356.928 103.698 356.928 H 109.738 C 109.838 356.928 109.738 356.828 109.738 356.928 V 359.948 C 109.738 360.003 109.783 360.048 109.838 360.048 H 116.158 H 119.278 C 119.333 360.048 119.378 360.003 119.378 359.948 V 356.828 V 348.948 C 119.378 348.893 119.333 348.848 119.278 348.848 H 116.258 C 116.158 348.848 116.258 348.948 116.258 348.848 V 342.808 C 116.258 342.708 116.158 342.808 116.258 342.808 H 119.278 C 119.333 342.808 119.378 342.763 119.378 342.708 V 336.468 C 119.378 336.413 119.333 336.368 119.278 336.368 H 116.258 C 116.158 336.368 116.258 336.468 116.258 336.368 V 330.328 C 116.258 330.228 116.158 330.328 116.258 330.328 H 119.278 C 119.333 330.328 119.378 330.283 119.378 330.228 V 323.988 C 119.378 323.933 119.333 323.888 119.278 323.888 H 116.258 C 116.158 323.888 116.258 323.988 116.258 323.888 V 317.848 C 116.258 317.748 116.158 317.848 116.258 317.848 H 119.278 C 119.333 317.848 119.378 317.803 119.378 317.748 V 311.508 C 119.378 311.453 119.333 311.408 119.278 311.408 H 116.258 C 116.158 311.408 116.258 311.508 116.258 311.408 V 305.368 C 116.258 305.268 116.158 305.368 116.258 305.368 H 119.278 C 119.333 305.368 119.378 305.323 119.378 305.268 V 299.028 C 119.378 298.973 119.333 298.928 119.278 298.928 H 116.258 C 116.158 298.928 116.258 299.028 116.258 298.928 V 292.888 C 116.258 292.788 116.158 292.888 116.258 292.888 H 119.278 C 119.333 292.888 119.378 292.843 119.378 292.788 V 286.548 C 119.378 286.493 119.333 286.448 119.278 286.448 H 116.258 C 116.158 286.448 116.258 286.548 116.258 286.448 V 280.408 C 116.258 280.308 116.158 280.408 116.258 280.408 H 119.278 C 119.333 280.408 119.378 280.363 119.378 280.308 V 272.428 C 119.378 272.373 119.333 272.328 119.278 272.328 H 116.258 C 116.158 272.328 116.258 272.428 116.258 272.328 V 263.068 C 116.258 263.013 116.213 262.968 116.158 262.968 H 22.398 C 22.343 262.968 22.298 263.013 22.298 263.068 V 272.328 C 22.298 272.428 22.398 272.328 22.298 272.328 H 19.278 C 19.223 272.328 19.178 272.373 19.178 272.428 V 280.308 C 19.178 280.363 19.223 280.408 19.278 280.408 H 22.298 C 22.398 280.408 22.298 280.308 22.298 280.408 V 286.448 C 22.298 286.548 22.398 286.448 22.298 286.448 H 19.278 C 19.223 286.448 19.178 286.493 19.178 286.548 V 292.788 C 19.178 292.843 19.223 292.888 19.278 292.888 H 22.298 C 22.398 292.888 22.298 292.788 22.298 292.888 V 298.928 C 22.298 299.028 22.398 298.928 22.298 298.928 H 19.278 C 19.223 298.928 19.178 298.973 19.178 299.028 V 305.268 C 19.178 305.323 19.223 305.368 19.278 305.368 H 22.298 C 22.398 305.368 22.298 305.268 22.298 305.368 V 311.408 C 22.298 311.508 22.398 311.408 22.298 311.408 H 19.278 C 19.223 311.408 19.178 311.453 19.178 311.508 V 317.748 C 19.178 317.803 19.223 317.848 19.278 317.848 H 22.298 C 22.398 317.848 22.298 317.748 22.298 317.848 V 323.888 C 22.298 323.988 22.398 323.888 22.298 323.888 H 19.278 C 19.223 323.888 19.178 323.933 19.178 323.988 V 330.228 C 19.178 330.283 19.223 330.328 19.278 330.328 H 22.298 C 22.398 330.328 22.298 330.228 22.298 330.328 V 336.368 C 22.298 336.468 22.398 336.368 22.298 336.368 H 19.278 C 19.223 336.368 19.178 336.413 19.178 336.468 V 342.708 C 19.178 342.763 19.223 342.808 19.278 342.808 H 22.298 C 22.398 342.808 22.298 342.708 22.298 342.808 V 348.848 C 22.298 348.948 22.398 348.848 22.298 348.848 H 19.278 C 19.223 348.848 19.178 348.893 19.178 348.948 V 356.828 V 359.948 C 19.178 360.003 19.223 360.048 19.278 360.048 H 22.398" stroke="rgb(0,0,0)" stroke-width="0.20" />
</g>
<g id="p-7" style="fill:none;stroke-linecap:round;stroke-linejoin:round;">
  <text alignment-baseline="hanging" font-size="4px" style="font-family: sans-serif ; font-weight: normal; font-style: normal; fill: rgb(255,0,0)" text-anchor="middle" transform="matrix( 1.000 0.000 0.000 1.000 69.278 247.848 )" /><path d="M 22.398 261.408 H 28.718 C 28.773 261.408 28.818 261.363 28.818 261.308 V 258.288 C 28.818 258.188 28.718 258.288 28.818 258.288 H 34.858 C 34.958 258.288 34.858 258.188 34.858 258.288 V 261.308 C 34.858 261.363 34.903 261.408 34.958 261.408 H 41.198 C 41.253 261.408 41.298 261.363 41.298 261.308 V 258.288 C 41.298 258.188 41.198 258.288 41.298 258.288 H 47.338 C 47.438 258.288 47.338 258.188 47.338 258.288 V 261.308 C 47.338 261.363 47.383 261.408 47.438 261.408 H 53.678 C 53.733 261.408 53.778 261.363 53.778 261.308 V 258.288 C 53.778 258.188 53.678 258.288 53.778 258.288 H 59.818 C 59.918 258.288 59.818 258.188 59.818 258.288 V 261.308 C 59.818 261.363 59.863 261.408 59.918 261.408 H 66.158 C 66.213 261.408 66.258 261.363 66.258 261.308 V 258.288 C 66.258 258.188 66.158 258.288 66.258 258.288 H 72.298 C 72.398 258.288 72.298 258.188 72.298 258.288 V 261.308 C 72.298 261.363 72.343 261.408 72.398 261.408 H 78.638 C 78.693 261.408 78.738 261.363 78.738 261.308 V 258.288 C 78.738 258.188 78.638 258.288 78.738 258.288 H 84.778 C 84.878 258.288 84.778 258.188 84.778 258.288 V 261.308 C 84.778 261.363 84.823 261.408 84.878 261.408 H 91.118 C 91.173 261.408 91.218 261.363 91.218 261.308 V 258.288 C 91.218 258.188 91.118 258.288 91.218 258.288 H 97.258 C 97.358 258.288 97.258 258.188 97.258 258.288 V 261.308 C 97.258 261.363 97.303 261.408 97.358 261.408 H 103.598 C 103.653 261.408 103.698 261.363 103.698 261.308 V 258.288 C 103.698 258.188 103.598 258.288 103.698 258.288 H 109.738 C 109.838 258.288 109.738 258.188 109.738 258.288 V 261.308 C 109.738 261.363 109.783 261.408 109.838 261.408 H 116.158 H 119.278 C 119.333 261.408 119.378 261.363 119.378 261.308 V 258.188 V 251.308 C 119.378 251.253 119.333 251.208 119.278 251.208 H 116.258 C 116.158 251.208 116.258 251.308 116.258 251.208 V 245.168 C 116.258 245.068 116.158 245.168 116.258 245.168 H 119.278 C 119.333 245.168 119.378 245.123 119.378 245.068 V 238.188 C 119.378 238.133 119.333 238.088 119.278 238.088 H 116.158 H 22.398 H 19.278 C 19.223 238.088 19.178 238.133 19.178 238.188 V 245.068 C 19.178 245.123 19.223 245.168 19.278 245.168 H 22.298 C 22.398 245.168 22.298 245.068 22.298 245.168 V 251.208 C 22.298 251.308 22.398 251.208 22.298 251.208 H 19.278 C 19.223 251.208 19.178 251.253 19.178 251.308 V 258.188 V 261.308 C 19.178 261.363 19.223 261.408 19.278 261.408 H 22.398" stroke="rgb(0,0,0)" stroke-width="0.20" />
</g>
<g id="p-8" style="fill:none;stroke-linecap:round;stroke-linejoin:round;">
  <text alignment-baseline="hanging" font-size="4px" style="font-family: sans-serif ; font-weight: normal; font-style: normal; fill: rgb(255,0,0)" text-anchor="middle" transform="matrix( 1.000 0.000 0.000 1.000 69.278 223.124 )" /><path d="M 22.398 236.528 H 28.718 C 28.773 236.528 28.818 236.483 28.818 236.428 V 233.408 C 28.818 233.308 28.718 233.408 28.818 233.408 H 34.858 C 34.958 233.408 34.858 233.308 34.858 233.408 V 236.428 C 34.858 236.483 34.903 236.528 34.958 236.528 H 41.198 C 41.253 236.528 41.298 236.483 41.298 236.428 V 233.408 C 41.298 233.308 41.198 233.408 41.298 233.408 H 47.338 C 47.438 233.408 47.338 233.308 47.338 233.408 V 236.428 C 47.338 236.483 47.383 236.528 47.438 236.528 H 53.678 C 53.733 236.528 53.778 236.483 53.778 236.428 V 233.408 C 53.778 233.308 53.678 233.408 53.778 233.408 H 59.818 C 59.918 233.408 59.818 233.308 59.818 233.408 V 236.428 C 59.818 236.483 59.863 236.528 59.918 236.528 H 66.158 C 66.213 236.528 66.258 236.483 66.258 236.428 V 233.408 C 66.258 233.308 66.158 233.408 66.258 233.408 H 72.298 C 72.398 233.408 72.298 233.308 72.298 233.408 V 236.428 C 72.298 236.483 72.343 236.528 72.398 236.528 H 78.638 C 78.693 236.528 78.738 236.483 78.738 236.428 V 233.408 C 78.738 233.308 78.638 233.408 78.738 233.408 H 84.778 C 84.878 233.408 84.778 233.308 84.778 233.408 V 236.428 C 84.778 236.483 84.823 236.528 84.878 236.528 H 91.118 C 91.173 236.528 91.218 236.483 91.218 236.428 V 233.408 C 91.218 233.308 91.118 233.408 91.218 233.408 H 97.258 C 97.358 233.408 97.258 233.308 97.258 233.408 V 236.428 C 97.258 236.483 97.303 236.528 97.358 236.528 H 103.598 C 103.653 236.528 103.698 236.483 103.698 236.428 V 233.408 C 103.698 233.308 103.598 233.408 103.698 233.408 H 109.738 C 109.838 233.408 109.738 233.308 109.738 233.408 V 236.428 C 109.738 236.483 109.783 236.528 109.838 236.528 H 116.158 H 119.278 C 119.333 236.528 119.378 236.483 119.378 236.428 V 233.308 V 228.144 V 222.980 C 119.378 222.925 119.333 222.880 119.278 222.880 H 116.258 C 116.158 222.880 116.258 222.980 116.258 222.880 V 218.390 C 116.258 218.290 116.158 218.390 116.258 218.390 H 119.278 C 119.333 218.390 119.378 218.345 119.378 218.290 V 213.620 C 119.378 213.565 119.333 213.520 119.278 213.520 H 19.278 C 19.223 213.520 19.178 213.565 19.178 213.620 V 218.290 C 19.178 218.345 19.223 218.390 19.278 218.390 H 22.298 C 22.398 218.390 22.298 218.290 22.298 218.390 V 222.880 C 22.298 222.980 22.398 222.880 22.298 222.880 H 19.278 C 19.223 222.880 19.178 222.925 19.178 222.980 V 228.144 V 233.308 V 236.428 C 19.178 236.483 19.223 236.528 19.278 236.528 H 22.398" stroke="rgb(0,0,0)" stroke-width="0.20" />
</g>
<g id="p-9" style="fill:none;stroke-linecap:round;stroke-linejoin:round;">
  <text alignment-baseline="hanging" font-size="4px" style="font-family: sans-serif ; font-weight: normal; font-style: normal; fill: rgb(255,0,0)" text-anchor="middle" transform="matrix( 1.000 0.000 0.000 1.000 69.278 159.960 )" /><path d="M 22.398 208.840 H 28.618 C 28.718 208.840 28.618 208.740 28.618 208.840 V 211.860 C 28.618 211.915 28.663 211.960 28.718 211.960 H 34.958 C 35.013 211.960 35.058 211.915 35.058 211.860 V 208.840 C 35.058 208.740 34.958 208.840 35.058 208.840 H 41.098 C 41.198 208.840 41.098 208.740 41.098 208.840 V 211.860 C 41.098 211.915 41.143 211.960 41.198 211.960 H 47.438 C 47.493 211.960 47.538 211.915 47.538 211.860 V 208.840 C 47.538 208.740 47.438 208.840 47.538 208.840 H 53.578 C 53.678 208.840 53.578 208.740 53.578 208.840 V 211.860 C 53.578 211.915 53.623 211.960 53.678 211.960 H 59.918 C 59.973 211.960 60.018 211.915 60.018 211.860 V 208.840 C 60.018 208.740 59.918 208.840 60.018 208.840 H 66.058 C 66.158 208.840 66.058 208.740 66.058 208.840 V 211.860 C 66.058 211.915 66.103 211.960 66.158 211.960 H 72.398 C 72.453 211.960 72.498 211.915 72.498 211.860 V 208.840 C 72.498 208.740 72.398 208.840 72.498 208.840 H 78.538 C 78.638 208.840 78.538 208.740 78.538 208.840 V 211.860 C 78.538 211.915 78.583 211.960 78.638 211.960 H 84.878 C 84.933 211.960 84.978 211.915 84.978 211.860 V 208.840 C 84.978 208.740 84.878 208.840 84.978 208.840 H 91.018 C 91.118 208.840 91.018 208.740 91.018 208.840 V 211.860 C 91.018 211.915 91.063 211.960 91.118 211.960 H 97.358 C 97.413 211.960 97.458 211.915 97.458 211.860 V 208.840 C 97.458 208.740 97.358 208.840 97.458 208.840 H 103.498 C 103.598 208.840 103.498 208.740 103.498 208.840 V 211.860 C 103.498 211.915 103.543 211.960 103.598 211.960 H 109.838 C 109.893 211.960 109.938 211.915 109.938 211.860 V 208.840 C 109.938 208.740 109.838 208.840 109.938 208.840 H 116.158 C 116.213 208.840 116.258 208.795 116.258 208.740 V 202.520 C 116.258 202.420 116.158 202.520 116.258 202.520 H 119.278 C 119.333 202.520 119.378 202.475 119.378 202.420 V 196.180 C 119.378 196.125 119.333 196.080 119.278 196.080 H 116.258 C 116.158 196.080 116.258 196.180 116.258 196.080 V 190.040 C 116.258 189.940 116.158 190.040 116.258 190.040 H 119.278 C 119.333 190.040 119.378 189.995 119.378 189.940 V 183.700 C 119.378 183.645 119.333 183.600 119.278 183.600 H 116.258 C 116.158 183.600 116.258 183.700 116.258 183.600 V 177.560 C 116.258 177.460 116.158 177.560 116.258 177.560 H 119.278 C 119.333 177.560 119.378 177.515 119.378 177.460 V 171.220 C 119.378 171.165 119.333 171.120 119.278 171.120 H 116.258 C 116.158 171.120 116.258 171.220 116.258 171.120 V 165.080 C 116.258 164.980 116.158 165.080 116.258 165.080 H 119.278 C 119.333 165.080 119.378 165.035 119.378 164.980 V 158.740 C 119.378 158.685 119.333 158.640 119.278 158.640 H 116.258 C 116.158 158.640 116.258 158.740 116.258 158.640 V 152.600 C 116.258 152.500 116.158 152.600 116.258 152.600 H 119.278 C 119.333 152.600 119.378 152.555 119.378 152.500 V 146.260 C 119.378 146.205 119.333 146.160 119.278 146.160 H 116.258 C 116.158 146.160 116.258 146.260 116.258 146.160 V 140.120 C 116.258 140.020 116.158 140.120 116.258 140.120 H 119.278 C 119.333 140.120 119.378 140.075 119.378 140.020 V 133.780 C 119.378 133.725 119.333 133.680 119.278 133.680 H 116.258 C 116.158 133.680 116.258 133.780 116.258 133.680 V 127.640 C 116.258 127.540 116.158 127.640 116.258 127.640 H 119.278 C 119.333 127.640 119.378 127.595 119.378 127.540 V 121.300 C 119.378 121.245 119.333 121.200 119.278 121.200 H 116.258 C 116.158 121.200 116.258 121.300 116.258 121.200 V 114.980 C 116.258 114.925 116.213 114.880 116.158 114.880 H 109.938 C 109.838 114.880 109.938 114.980 109.938 114.880 V 111.860 C 109.938 111.805 109.893 111.760 109.838 111.760 H 103.598 C 103.543 111.760 103.498 111.805 103.498 111.860 V 114.880 C 103.498 114.980 103.598 114.880 103.498 114.880 H 97.458 C 97.358 114.880 97.458 114.980 97.458 114.880 V 111.860 C 97.458 111.805 97.413 111.760 97.358 111.760 H 91.118 C 91.063 111.760 91.018 111.805 91.018 111.860 V 114.880 C 91.018 114.980 91.118 114.880 91.018 114.880 H 84.978 C 84.878 114.880 84.978 114.980 84.978 114.880 V 111.860 C 84.978 111.805 84.933 111.760 84.878 111.760 H 78.638 C 78.583 111.760 78.538 111.805 78.538 111.860 V 114.880 C 78.538 114.980 78.638 114.880 78.538 114.880 H 72.498 C 72.398 114.880 72.498 114.980 72.498 114.880 V 111.860 C 72.498 111.805 72.453 111.760 72.398 111.760 H 66.158 C 66.103 111.760 66.058 111.805 66.058 111.860 V 114.880 C 66.058 114.980 66.158 114.880 66.058 114.880 H 60.018 C 59.918 114.880 60.018 114.980 60.018 114.880 V 111.860 C 60.018 111.805 59.973 111.760 59.918 111.760 H 53.678 C 53.623 111.760 53.578 111.805 53.578 111.860 V 114.880 C 53.578 114.980 53.678 114.880 53.578 114.880 H 47.538 C 47.438 114.880 47.538 114.980 47.538 114.880 V 111.860 C 47.538 111.805 47.493 111.760 47.438 111.760 H 41.198 C 41.143 111.760 41.098 111.805 41.098 111.860 V 114.880 C 41.098 114.980 41.198 114.880 41.098 114.880 H 35.058 C 34.958 114.880 35.058 114.980 35.058 114.880 V 111.860 C 35.058 111.805 35.013 111.760 34.958 111.760 H 28.718 C 28.663 111.760 28.618 111.805 28.618 111.860 V 114.880 C 28.618 114.980 28.718 114.880 28.618 114.880 H 22.398 C 22.343 114.880 22.298 114.925 22.298 114.980 V 121.200 C 22.298 121.300 22.398 121.200 22.298 121.200 H 19.278 C 19.223 121.200 19.178 121.245 19.178 121.300 V 127.540 C 19.178 127.595 19.223 127.640 19.278 127.640 H 22.298 C 22.398 127.640 22.298 127.540 22.298 127.640 V 133.680 C 22.298 133.780 22.398 133.680 22.298 133.680 H 19.278 C 19.223 133.680 19.178 133.725 19.178 133.780 V 140.020 C 19.178 140.075 19.223 140.120 19.278 140.120 H 22.298 C 22.398 140.120 22.298 140.020 22.298 140.120 V 146.160 C 22.298 146.260 22.398 146.160 22.298 146.160 H 19.278 C 19.223 146.160 19.178 146.205 19.178 146.260 V 152.500 C 19.178 152.555 19.223 152.600 19.278 152.600 H 22.298 C 22.398 152.600 22.298 152.500 22.298 152.600 V 158.640 C 22.298 158.740 22.398 158.640 22.298 158.640 H 19.278 C 19.223 158.640 19.178 158.685 19.178 158.740 V 164.980 C 19.178 165.035 19.223 165.080 19.278 165.080 H 22.298 C 22.398 165.080 22.298 164.980 22.298 165.080 V 171.120 C 22.298 171.220 22.398 171.120 22.298 171.120 H 19.278 C 19.223 171.120 19.178 171.165 19.178 171.220 V 177.460 C 19.178 177.515 19.223 177.560 19.278 177.560 H 22.298 C 22.398 177.560 22.298 177.460 22.298 177.560 V 183.600 C 22.298 183.700 22.398 183.600 22.298 183.600 H 19.278 C 19.223 183.600 19.178 183.645 19.178 183.700 V 189.940 C 19.178 189.995 19.223 190.040 19.278 190.040 H 22.298 C 22.398 190.040 22.298 189.940 22.298 190.040 V 196.080 C 22.298 196.180 22.398 196.080 22.298 196.080 H 19.278 C 19.223 196.080 19.178 196.125 19.178 196.180 V 202.420 C 19.178 202.475 19.223 202.520 19.278 202.520 H 22.298 C 22.398 202.520 22.298 202.420 22.298 202.520 V 208.740 C 22.298 208.795 22.343 208.840 22.398 208.840" stroke="rgb(0,0,0)" stroke-width="0.20" />
</g>
<g id="p-10" style="fill:none;stroke-linecap:round;stroke-linejoin:round;">
  <text alignment-baseline="hanging" font-size="4px" style="font-family: sans-serif ; font-weight: normal; font-style: normal; fill: rgb(255,0,0)" text-anchor="middle" transform="matrix( 1.000 0.000 0.000 1.000 69.278 58.200 )" /><path d="M 22.398 107.080 H 28.618 C 28.718 107.080 28.618 106.980 28.618 107.080 V 110.100 C 28.618 110.155 28.663 110.200 28.718 110.200 H 34.958 C 35.013 110.200 35.058 110.155 35.058 110.100 V 107.080 C 35.058 106.980 34.958 107.080 35.058 107.080 H 41.098 C 41.198 107.080 41.098 106.980 41.098 107.080 V 110.100 C 41.098 110.155 41.143 110.200 41.198 110.200 H 47.438 C 47.493 110.200 47.538 110.155 47.538 110.100 V 107.080 C 47.538 106.980 47.438 107.080 47.538 107.080 H 53.578 C 53.678 107.080 53.578 106.980 53.578 107.080 V 110.100 C 53.578 110.155 53.623 110.200 53.678 110.200 H 59.918 C 59.973 110.200 60.018 110.155 60.018 110.100 V 107.080 C 60.018 106.980 59.918 107.080 60.018 107.080 H 66.058 C 66.158 107.080 66.058 106.980 66.058 107.080 V 110.100 C 66.058 110.155 66.103 110.200 66.158 110.200 H 72.398 C 72.453 110.200 72.498 110.155 72.498 110.100 V 107.080 C 72.498 106.980 72.398 107.080 72.498 107.080 H 78.538 C 78.638 107.080 78.538 106.980 78.538 107.080 V 110.100 C 78.538 110.155 78.583 110.200 78.638 110.200 H 84.878 C 84.933 110.200 84.978 110.155 84.978 110.100 V 107.080 C 84.978 106.980 84.878 107.080 84.978 107.080 H 91.018 C 91.118 107.080 91.018 106.980 91.018 107.080 V 110.100 C 91.018 110.155 91.063 110.200 91.118 110.200 H 97.358 C 97.413 110.200 97.458 110.155 97.458 110.100 V 107.080 C 97.458 106.980 97.358 107.080 97.458 107.080 H 103.498 C 103.598 107.080 103.498 106.980 103.498 107.080 V 110.100 C 103.498 110.155 103.543 110.200 103.598 110.200 H 109.838 C 109.893 110.200 109.938 110.155 109.938 110.100 V 107.080 C 109.938 106.980 109.838 107.080 109.938 107.080 H 116.158 C 116.213 107.080 116.258 107.035 116.258 106.980 V 100.760 C 116.258 100.660 116.158 100.760 116.258 100.760 H 119.278 C 119.333 100.760 119.378 100.715 119.378 100.660 V 94.420 C 119.378 94.365 119.333 94.320 119.278 94.320 H 116.258 C 116.158 94.320 116.258 94.420 116.258 94.320 V 88.280 C 116.258 88.180 116.158 88.280 116.258 88.280 H 119.278 C 119.333 88.280 119.378 88.235 119.378 88.180 V 81.940 C 119.378 81.885 119.333 81.840 119.278 81.840 H 116.258 C 116.158 81.840 116.258 81.940 116.258 81.840 V 75.800 C 116.258 75.700 116.158 75.800 116.258 75.800 H 119.278 C 119.333 75.800 119.378 75.755 119.378 75.700 V 69.460 C 119.378 69.405 119.333 69.360 119.278 69.360 H 116.258 C 116.158 69.360 116.258 69.460 116.258 69.360 V 63.320 C 116.258 63.220 116.158 63.320 116.258 63.320 H 119.278 C 119.333 63.320 119.378 63.275 119.378 63.220 V 56.980 C 119.378 56.925 119.333 56.880 119.278 56.880 H 116.258 C 116.158 56.880 116.258 56.980 116.258 56.880 V 50.840 C 116.258 50.740 116.158 50.840 116.258 50.840 H 119.278 C 119.333 50.840 119.378 50.795 119.378 50.740 V 44.500 C 119.378 44.445 119.333 44.400 119.278 44.400 H 116.258 C 116.158 44.400 116.258 44.500 116.258 44.400 V 38.360 C 116.258 38.260 116.158 38.360 116.258 38.360 H 119.278 C 119.333 38.360 119.378 38.315 119.378 38.260 V 32.020 C 119.378 31.965 119.333 31.920 119.278 31.920 H 116.258 C 116.158 31.920 116.258 32.020 116.258 31.920 V 25.880 C 116.258 25.780 116.158 25.880 116.258 25.880 H 119.278 C 119.333 25.880 119.378 25.835 119.378 25.780 V 19.540 C 119.378 19.485 119.333 19.440 119.278 19.440 H 116.258 C 116.158 19.440 116.258 19.540 116.258 19.440 V 13.220 C 116.258 13.165 116.213 13.120 116.158 13.120 H 109.938 C 109.838 13.120 109.938 13.220 109.938 13.120 V 10.100 C 109.938 10.045 109.893 10.000 109.838 10.000 H 103.598 C 103.543 10.000 103.498 10.045 103.498 10.100 V 13.120 C 103.498 13.220 103.598 13.120 103.498 13.120 H 97.458 C 97.358 13.120 97.458 13.220 97.458 13.120 V 10.100 C 97.458 10.045 97.413 10.000 97.358 10.000 H 91.118 C 91.063 10.000 91.018 10.045 91.018 10.100 V 13.120 C 91.018 13.220 91.118 13.120 91.018 13.120 H 84.978 C 84.878 13.120 84.978 13.220 84.978 13.120 V 10.100 C 84.978 10.045 84.933 10.000 84.878 10.000 H 78.638 C 78.583 10.000 78.538 10.045 78.538 10.100 V 13.120 C 78.538 13.220 78.638 13.120 78.538 13.120 H 72.498 C 72.398 13.120 72.498 13.220 72.498 13.120 V 10.100 C 72.498 10.045 72.453 10.000 72.398 10.000 H 66.158 C 66.103 10.000 66.058 10.045 66.058 10.100 V 13.120 C 66.058 13.220 66.158 13.120 66.058 13.120 H 60.018 C 59.918 13.120 60.018 13.220 60.018 13.120 V 10.100 C 60.018 10.045 59.973 10.000 59.918 10.000 H 53.678 C 53.623 10.000 53.578 10.045 53.578 10.100 V 13.120 C 53.578 13.220 53.678 13.120 53.578 13.120 H 47.538 C 47.438 13.120 47.538 13.220 47.538 13.120 V 10.100 C 47.538 10.045 47.493 10.000 47.438 10.000 H 41.198 C 41.143 10.000 41.098 10.045 41.098 10.100 V 13.120 C 41.098 13.220 41.198 13.120 41.098 13.120 H 35.058 C 34.958 13.120 35.058 13.220 35.058 13.120 V 10.100 C 35.058 10.045 35.013 10.000 34.958 10.000 H 28.718 C 28.663 10.000 28.618 10.045 28.618 10.100 V 13.120 C 28.618 13.220 28.718 13.120 28.618 13.120 H 22.398 C 22.343 13.120 22.298 13.165 22.298 13.220 V 19.440 C 22.298 19.540 22.398 19.440 22.298 19.440 H 19.278 C 19.223 19.440 19.178 19.485 19.178 19.540 V 25.780 C 19.178 25.835 19.223 25.880 19.278 25.880 H 22.298 C 22.398 25.880 22.298 25.780 22.298 25.880 V 31.920 C 22.298 32.020 22.398 31.920 22.298 31.920 H 19.278 C 19.223 31.920 19.178 31.965 19.178 32.020 V 38.260 C 19.178 38.315 19.223 38.360 19.278 38.360 H 22.298 C 22.398 38.360 22.298 38.260 22.298 38.360 V 44.400 C 22.298 44.500 22.398 44.400 22.298 44.400 H 19.278 C 19.223 44.400 19.178 44.445 19.178 44.500 V 50.740 C 19.178 50.795 19.223 50.840 19.278 50.840 H 22.298 C 22.398 50.840 22.298 50.740 22.298 50.840 V 56.880 C 22.298 56.980 22.398 56.880 22.298 56.880 H 19.278 C 19.223 56.880 19.178 56.925 19.178 56.980 V 63.220 C 19.178 63.275 19.223 63.320 19.278 63.320 H 22.298 C 22.398 63.320 22.298 63.220 22.298 63.320 V 69.360 C 22.298 69.460 22.398 69.360 22.298 69.360 H 19.278 C 19.223 69.360 19.178 69.405 19.178 69.460 V 75.700 C 19.178 75.755 19.223 75.800 19.278 75.800 H 22.298 C 22.398 75.800 22.298 75.700 22.298 75.800 V 81.840 C 22.298 81.940 22.398 81.840 22.298 81.840 H 19.278 C 19.223 81.840 19.178 81.885 19.178 81.940 V 88.180 C 19.178 88.235 19.223 88.280 19.278 88.280 H 22.298 C 22.398 88.280 22.298 88.180 22.298 88.280 V 94.320 C 22.298 94.420 22.398 94.320 22.298 94.320 H 19.278 C 19.223 94.320 19.178 94.365 19.178 94.420 V 100.660 C 19.178 100.715 19.223 100.760 19.278 100.760 H 22.298 C 22.398 100.760 22.298 100.660 22.298 100.760 V 106.980 C 22.298 107.035 22.343 107.080 22.398 107.080" stroke="rgb(0,0,0)" stroke-width="0.20" />
</g>
</svg>